<svg width="40" height="40" viewBox="0 0 40 40" fill="none" xmlns="http://www.w3.org/2000/svg">
<path fill-rule="evenodd" clip-rule="evenodd" d="M16.2204 4.55373C17.0018 3.77233 18.0616 3.33334 19.1667 3.33334C20.2717 3.33334 21.3315 3.77233 22.1129 4.55373C22.6949 5.13572 23.087 5.87214 23.2492 6.66668H27.5C30.7217 6.66668 33.3333 9.27835 33.3333 12.5V16.7508C34.1279 16.913 34.8643 17.3051 35.4463 17.8871C36.2277 18.6685 36.6667 19.7283 36.6667 20.8333C36.6667 21.9384 36.2277 22.9982 35.4463 23.7796C34.8643 24.3616 34.1279 24.7536 33.3333 24.9158V29.1667C33.3333 32.3883 30.7217 35 27.5 35H22.5C22.0398 35 21.6667 34.6269 21.6667 34.1667C21.6667 33.5036 21.4033 32.8677 20.9344 32.3989C20.4656 31.9301 19.8297 31.6667 19.1667 31.6667C18.5036 31.6667 17.8677 31.9301 17.3989 32.3989C16.9301 32.8677 16.6667 33.5036 16.6667 34.1667C16.6667 34.6269 16.2936 35 15.8333 35H10.8333C7.61167 35 5 32.3883 5 29.1667V24.1667C5 23.7064 5.3731 23.3333 5.83333 23.3333C6.49637 23.3333 7.13226 23.07 7.6011 22.6011L8.19036 23.1904L7.6011 22.6011C8.06994 22.1323 8.33333 21.4964 8.33333 20.8333C8.33333 20.1703 8.06994 19.5344 7.6011 19.0656C7.13226 18.5967 6.49637 18.3333 5.83333 18.3333C5.3731 18.3333 5 17.9602 5 17.5V12.5C5 9.27835 7.61167 6.66668 10.8333 6.66668L15.0842 6.66668C15.2464 5.87214 15.6384 5.13572 16.2204 4.55373ZM19.1667 5.00001C18.5036 5.00001 17.8677 5.2634 17.3989 5.73224C16.9301 6.20108 16.6667 6.83697 16.6667 7.50001C16.6667 7.96025 16.2936 8.33334 15.8333 8.33334L10.8333 8.33334C8.53215 8.33334 6.66667 10.1988 6.66667 12.5V16.7508C7.4612 16.913 8.19763 17.3051 8.77961 17.8871C9.56101 18.6685 10 19.7283 10 20.8333C10 21.9384 9.56101 22.9982 8.77961 23.7796C8.19763 24.3616 7.4612 24.7536 6.66667 24.9158V29.1667C6.66667 31.4679 8.53215 33.3333 10.8333 33.3333H15.0842C15.2464 32.5388 15.6384 31.8024 16.2204 31.2204L16.8096 31.8097L16.2204 31.2204C17.0018 30.439 18.0616 30 19.1667 30C20.2717 30 21.3315 30.439 22.1129 31.2204C22.6949 31.8024 23.087 32.5388 23.2492 33.3333H27.5C29.8012 33.3333 31.6667 31.4679 31.6667 29.1667V24.1667C31.6667 23.7064 32.0398 23.3333 32.5 23.3333C33.163 23.3333 33.7989 23.07 34.2678 22.6011C34.7366 22.1323 35 21.4964 35 20.8333C35 20.1703 34.7366 19.5344 34.2678 19.0656C33.7989 18.5967 33.163 18.3333 32.5 18.3333C32.0398 18.3333 31.6667 17.9602 31.6667 17.5V12.5C31.6667 10.1988 29.8012 8.33334 27.5 8.33334H22.5C22.0398 8.33334 21.6667 7.96025 21.6667 7.50001C21.6667 6.83697 21.4033 6.20108 20.9344 5.73224L21.5237 5.14299L20.9344 5.73224C20.4656 5.2634 19.8297 5.00001 19.1667 5.00001Z" fill="#B9C0DE"/>
</svg>
