<svg width="40" height="40" viewBox="0 0 40 40" fill="none" xmlns="http://www.w3.org/2000/svg">
<path fill-rule="evenodd" clip-rule="evenodd" d="M20.5188 31.3867C20.1873 31.7599 19.6042 31.7599 19.2727 31.3867L8.54851 19.3131C8.0711 18.7756 8.45266 17.9263 9.17156 17.9263H13.2293C13.6895 17.9263 14.0626 17.5532 14.0626 17.093V6.67625C14.0626 6.21601 14.4357 5.84291 14.896 5.84291H24.896C25.3562 5.84291 25.7293 6.21601 25.7293 6.67624V17.093C25.7293 17.5532 26.1024 17.9263 26.5626 17.9263H30.6199C31.3388 17.9263 31.7204 18.7756 31.2429 19.3131L20.5188 31.3867L21.1418 31.9401L20.5188 31.3867ZM18.0266 32.4935C19.0212 33.6132 20.7703 33.6132 21.7649 32.4935L32.489 20.4199C33.9213 18.8074 32.7766 16.2597 30.6199 16.2597H27.396V6.67624C27.396 5.29553 26.2767 4.17625 24.896 4.17625H14.896C13.5152 4.17625 12.396 5.29554 12.396 6.67625V16.2597H9.17156C7.01487 16.2597 5.87019 18.8074 7.30242 20.4199L18.0266 32.4935Z" fill="#1657FF"/>
</svg>
