<svg width="40" height="40" viewBox="0 0 40 40" fill="none" xmlns="http://www.w3.org/2000/svg">
<path fill-rule="evenodd" clip-rule="evenodd" d="M20.5187 6.94662C20.1872 6.57338 19.6041 6.57338 19.2726 6.94661L8.54844 19.0202C8.07103 19.5577 8.45259 20.407 9.17148 20.407H13.2292C13.6895 20.407 14.0625 20.7801 14.0625 21.2403V31.6571C14.0625 32.1173 14.4356 32.4904 14.8959 32.4904H24.8959C25.3561 32.4904 25.7292 32.1173 25.7292 31.6571V21.2403C25.7292 20.7801 26.1023 20.407 26.5625 20.407H30.6198C31.3387 20.407 31.7203 19.5577 31.2429 19.0202L20.5187 6.94662L21.1417 6.39321L20.5187 6.94662ZM18.0265 5.8398C19.0211 4.7201 20.7702 4.7201 21.7648 5.8398L32.489 17.9134C33.9212 19.5259 32.7765 22.0737 30.6198 22.0737H27.3959V31.6571C27.3959 33.0378 26.2766 34.1571 24.8959 34.1571H14.8959C13.5152 34.1571 12.3959 33.0378 12.3959 31.6571V22.0737H9.17148C7.0148 22.0737 5.87012 19.5259 7.30235 17.9134L18.0265 5.8398Z" fill="#1657FF"/>
</svg>
