<svg width="40" height="40" viewBox="0 0 40 40" fill="none" xmlns="http://www.w3.org/2000/svg">
<path fill-rule="evenodd" clip-rule="evenodd" d="M29.1667 5C29.6269 5 30 5.3731 30 5.83333L30 9.16667C30 9.6269 29.6269 10 29.1667 10C28.7064 10 28.3333 9.6269 28.3333 9.16667L28.3333 5.83333C28.3333 5.3731 28.7064 5 29.1667 5Z" fill="#FF16A2"/>
<path fill-rule="evenodd" clip-rule="evenodd" d="M14.1667 5C14.6269 5 15 5.3731 15 5.83333L15 9.16667C15 9.6269 14.6269 10 14.1667 10C13.7064 10 13.3333 9.6269 13.3333 9.16667L13.3333 5.83333C13.3333 5.3731 13.7064 5 14.1667 5Z" fill="#FF16A2"/>
<path fill-rule="evenodd" clip-rule="evenodd" d="M5 14.1667C5 10.945 7.61167 8.33334 10.8333 8.33334H30.8333C34.055 8.33334 36.6667 10.945 36.6667 14.1667V27.5C36.6667 30.7217 34.055 33.3333 30.8333 33.3333H10.8333C7.61167 33.3333 5 30.7217 5 27.5V14.1667ZM10.8333 10C8.53215 10 6.66667 11.8655 6.66667 14.1667V27.5C6.66667 29.8012 8.53215 31.6667 10.8333 31.6667H30.8333C33.1345 31.6667 35 29.8012 35 27.5V14.1667C35 11.8655 33.1345 10 30.8333 10H10.8333Z" fill="#1657FF"/>
<path fill-rule="evenodd" clip-rule="evenodd" d="M5 15.8333C5 15.3731 5.3731 15 5.83333 15H35.8333C36.2936 15 36.6667 15.3731 36.6667 15.8333C36.6667 16.2936 36.2936 16.6667 35.8333 16.6667H5.83333C5.3731 16.6667 5 16.2936 5 15.8333Z" fill="#1657FF"/>
<path fill-rule="evenodd" clip-rule="evenodd" d="M10 20.8333C10 20.3731 10.3731 20 10.8333 20H14.1667C14.6269 20 15 20.3731 15 20.8333C15 21.2936 14.6269 21.6667 14.1667 21.6667H10.8333C10.3731 21.6667 10 21.2936 10 20.8333Z" fill="#FF16A2"/>
<path fill-rule="evenodd" clip-rule="evenodd" d="M10 27.5C10 27.0398 10.3731 26.6667 10.8333 26.6667H14.1667C14.6269 26.6667 15 27.0398 15 27.5C15 27.9602 14.6269 28.3333 14.1667 28.3333H10.8333C10.3731 28.3333 10 27.9602 10 27.5Z" fill="#FF16A2"/>
<path fill-rule="evenodd" clip-rule="evenodd" d="M18.3333 20.8333C18.3333 20.3731 18.7064 20 19.1667 20H22.5C22.9602 20 23.3333 20.3731 23.3333 20.8333C23.3333 21.2936 22.9602 21.6667 22.5 21.6667H19.1667C18.7064 21.6667 18.3333 21.2936 18.3333 20.8333Z" fill="#FF16A2"/>
<path fill-rule="evenodd" clip-rule="evenodd" d="M18.3333 27.5C18.3333 27.0398 18.7064 26.6667 19.1667 26.6667H22.5C22.9602 26.6667 23.3333 27.0398 23.3333 27.5C23.3333 27.9602 22.9602 28.3333 22.5 28.3333H19.1667C18.7064 28.3333 18.3333 27.9602 18.3333 27.5Z" fill="#FF16A2"/>
<path fill-rule="evenodd" clip-rule="evenodd" d="M26.6667 20.8333C26.6667 20.3731 27.0398 20 27.5 20H30.8333C31.2936 20 31.6667 20.3731 31.6667 20.8333C31.6667 21.2936 31.2936 21.6667 30.8333 21.6667H27.5C27.0398 21.6667 26.6667 21.2936 26.6667 20.8333Z" fill="#FF16A2"/>
<path fill-rule="evenodd" clip-rule="evenodd" d="M26.6667 27.5C26.6667 27.0398 27.0398 26.6667 27.5 26.6667H30.8333C31.2936 26.6667 31.6667 27.0398 31.6667 27.5C31.6667 27.9602 31.2936 28.3333 30.8333 28.3333H27.5C27.0398 28.3333 26.6667 27.9602 26.6667 27.5Z" fill="#FF16A2"/>
</svg>
