<svg width="33" height="38" viewBox="0 0 33 38" fill="none" xmlns="http://www.w3.org/2000/svg">
<g clip-path="url(#clip0_581_11)">
<path d="M9.54167 28.6246H23.2083M14.6969 1.93215L3.11046 11.823C2.33595 12.4842 1.94871 12.8148 1.66972 13.2288C1.42259 13.5955 1.23848 14.0086 1.12647 14.4479C1 14.9437 1 15.4822 1 16.5592V30.1246C1 32.2248 1 33.275 1.3724 34.0771C1.69996 34.7827 2.22264 35.3564 2.86553 35.7159C3.59639 36.1246 4.55315 36.1246 6.46667 36.1246H26.2833C28.1968 36.1246 29.1537 36.1246 29.8845 35.7159C30.5273 35.3564 31.0501 34.7827 31.3776 34.0771C31.75 33.275 31.75 32.2248 31.75 30.1246V16.5592C31.75 15.4822 31.75 14.9437 31.6236 14.4479C31.5115 14.0086 31.3274 13.5955 31.0803 13.2288C30.8014 12.8148 30.4141 12.4842 29.6395 11.823L18.0531 1.93215C17.453 1.4198 17.1528 1.16362 16.8214 1.06517C16.5291 0.978277 16.2209 0.978277 15.9286 1.06517C15.5972 1.16362 15.297 1.4198 14.6969 1.93215Z" stroke="#1657FF" stroke-width="2" stroke-linecap="round" stroke-linejoin="round"/>
<path d="M8.6625 28.5C8.6625 27.9753 9.08783 27.55 9.6125 27.55H23.0319C23.6163 27.55 24.09 28.0237 24.09 28.6081V28.6081C24.09 29.1925 23.6163 29.6663 23.0319 29.6663H9.82877C9.18466 29.6663 8.6625 29.1441 8.6625 28.5V28.5V28.5Z" fill="#FF16A2"/>
</g>
<defs>
<clipPath id="clip0_581_11">
<rect width="33" height="38" fill="white"/>
</clipPath>
</defs>
</svg>
