<svg width="40" height="40" viewBox="0 0 40 40" fill="none" xmlns="http://www.w3.org/2000/svg">
<path d="M22.5 20.8704C22.5 22.7113 21.0076 24.2037 19.1667 24.2037C17.3257 24.2037 15.8333 22.7113 15.8333 20.8704C15.8333 19.0294 17.3257 17.537 19.1667 17.537C21.0076 17.537 22.5 19.0294 22.5 20.8704Z" fill="#FF16A2"/>
<path fill-rule="evenodd" clip-rule="evenodd" d="M26.0407 13.5597C26.3827 13.2518 26.9096 13.2794 27.2176 13.6214C28.7484 15.3216 29.7017 17.4627 29.9409 19.7379C30.18 22.0132 29.6927 24.3057 28.5488 26.287C28.3187 26.6856 27.809 26.8221 27.4105 26.592C27.0119 26.3619 26.8753 25.8522 27.1054 25.4537C28.0733 23.7772 28.4857 21.8374 28.2833 19.9122C28.081 17.987 27.2743 16.1752 25.979 14.7366C25.6711 14.3946 25.6987 13.8677 26.0407 13.5597Z" fill="#1657FF"/>
<path fill-rule="evenodd" clip-rule="evenodd" d="M31.4231 10.2141C31.7652 9.90609 32.2921 9.93371 32.6 10.2757C34.8374 12.7606 36.2307 15.8899 36.5802 19.2153C36.9297 22.5406 36.2175 25.8913 34.5456 28.787C34.3155 29.1855 33.8059 29.3221 33.4073 29.092C33.0087 28.8619 32.8721 28.3522 33.1023 27.9536C34.5981 25.3627 35.2354 22.3648 34.9226 19.3895C34.6099 16.4142 33.3633 13.6142 31.3615 11.3909C31.0535 11.0489 31.0811 10.522 31.4231 10.2141Z" fill="#1657FF"/>
<path fill-rule="evenodd" clip-rule="evenodd" d="M12.2926 13.5597C11.9506 13.2518 11.4237 13.2794 11.1157 13.6214C9.58491 15.3216 8.63162 17.4627 8.39248 19.7379C8.15334 22.0132 8.64064 24.3057 9.78453 26.287C10.0146 26.6856 10.5243 26.8221 10.9229 26.592C11.3215 26.3619 11.458 25.8522 11.2279 25.4537C10.26 23.7772 9.84767 21.8374 10.05 19.9122C10.2524 17.987 11.059 16.1752 12.3543 14.7366C12.6623 14.3946 12.6347 13.8677 12.2926 13.5597Z" fill="#1657FF"/>
<path fill-rule="evenodd" clip-rule="evenodd" d="M6.9102 10.2141C6.56817 9.90609 6.04126 9.93371 5.7333 10.2757C3.49595 12.7606 2.10267 15.8899 1.75316 19.2153C1.40365 22.5406 2.11586 25.8913 3.78769 28.787C4.01781 29.1855 4.52747 29.3221 4.92604 29.092C5.32462 28.8619 5.46119 28.3522 5.23107 27.9536C3.73521 25.3627 3.09798 22.3648 3.4107 19.3895C3.72342 16.4142 4.97003 13.6142 6.97188 11.3909C7.27983 11.0489 7.25222 10.522 6.9102 10.2141Z" fill="#1657FF"/>
</svg>
