<svg width="40" height="40" viewBox="0 0 40 40" fill="none" xmlns="http://www.w3.org/2000/svg">
<path fill-rule="evenodd" clip-rule="evenodd" d="M16.9684 31.8583C17.3228 31.5647 17.8481 31.614 18.1417 31.9684C18.5111 32.4143 18.9411 32.7577 19.402 32.9882C19.8622 33.2183 20.348 33.3334 20.8333 33.3334C21.3187 33.3334 21.8045 33.2183 22.2647 32.9882C22.7256 32.7577 23.1556 32.4143 23.525 31.9684C23.8186 31.614 24.3439 31.5647 24.6983 31.8583C25.0527 32.1519 25.102 32.6773 24.8084 33.0317C24.3023 33.6426 23.6929 34.1375 23.01 34.4789C22.3263 34.8208 21.5861 35 20.8333 35C20.0806 35 19.3404 34.8208 18.6567 34.4789C17.9738 34.1375 17.3644 33.6426 16.8583 33.0317C16.5647 32.6773 16.614 32.1519 16.9684 31.8583Z" fill="#FF16A2"/>
<path fill-rule="evenodd" clip-rule="evenodd" d="M20.8333 3.33334C21.2936 3.33334 21.6667 3.70644 21.6667 4.16668V5.83334C21.6667 6.29358 21.2936 6.66668 20.8333 6.66668C20.3731 6.66668 20 6.29358 20 5.83334V4.16668C20 3.70644 20.3731 3.33334 20.8333 3.33334Z" fill="#FF16A2"/>
<path fill-rule="evenodd" clip-rule="evenodd" d="M10 15.8333C10 9.85025 14.8502 5 20.8333 5C26.8164 5 31.6667 9.85025 31.6667 15.8333V22.3033C31.6667 23.1296 32.1336 23.8851 32.8727 24.2546L33.4005 24.5186C34.3808 25.0087 35 26.0106 35 27.1066C35 28.7046 33.7046 30 32.1066 30H9.56011C7.9621 30 6.66666 28.7046 6.66666 27.1066C6.66666 26.0106 7.28587 25.0087 8.26612 24.5186L8.79399 24.2546C9.53311 23.8851 10 23.1296 10 22.3033V15.8333ZM20.8333 6.66667C15.7707 6.66667 11.6667 10.7707 11.6667 15.8333V22.3033C11.6667 23.7609 10.8431 25.0935 9.53934 25.7454L9.01148 26.0093C8.59586 26.2171 8.33333 26.6419 8.33333 27.1066C8.33333 27.7841 8.88258 28.3333 9.56011 28.3333H32.1066C32.7841 28.3333 33.3333 27.7841 33.3333 27.1066C33.3333 26.6419 33.0708 26.2171 32.6552 26.0093L32.1273 25.7454C30.8236 25.0935 30 23.7609 30 22.3033V15.8333C30 10.7707 25.8959 6.66667 20.8333 6.66667Z" fill="#1657FF"/>
</svg>
