<svg width="40" height="40" viewBox="0 0 40 40" fill="none" xmlns="http://www.w3.org/2000/svg">
<path fill-rule="evenodd" clip-rule="evenodd" d="M29.1667 5C29.6269 5 30 5.3731 30 5.83333L30 9.16667C30 9.6269 29.6269 10 29.1667 10C28.7064 10 28.3333 9.6269 28.3333 9.16667L28.3333 5.83333C28.3333 5.3731 28.7064 5 29.1667 5Z" fill="#FF16A2"/>
<path fill-rule="evenodd" clip-rule="evenodd" d="M14.1667 5C14.6269 5 15 5.3731 15 5.83333L15 9.16667C15 9.6269 14.6269 10 14.1667 10C13.7064 10 13.3333 9.6269 13.3333 9.16667L13.3333 5.83333C13.3333 5.3731 13.7064 5 14.1667 5Z" fill="#FF16A2"/>
<path fill-rule="evenodd" clip-rule="evenodd" d="M5 14.1667C5 10.945 7.61167 8.33333 10.8333 8.33333H30.8333C34.055 8.33333 36.6667 10.945 36.6667 14.1667V27.5C36.6667 30.7217 34.055 33.3333 30.8333 33.3333H10.8333C7.61167 33.3333 5 30.7217 5 27.5V14.1667ZM10.8333 9.99999C8.53215 9.99999 6.66667 11.8655 6.66667 14.1667V27.5C6.66667 29.8012 8.53215 31.6667 10.8333 31.6667H30.8333C33.1345 31.6667 35 29.8012 35 27.5V14.1667C35 11.8655 33.1345 9.99999 30.8333 9.99999H10.8333Z" fill="#1657FF"/>
<path d="M25.0097 17.8194C24.944 18.1941 25.223 18.5072 25.5587 18.5072V18.5072C25.8945 18.5072 26.1563 18.1897 26.2597 17.8262C26.5253 16.8918 27.3343 16.2486 28.3471 16.2486C29.5002 16.2486 30.241 17.1472 30.241 18.2765C30.241 19.2309 29.9265 19.8512 28.5638 21.4656L25.1855 25.4764C25.0752 25.6074 25.0136 25.7818 25.0136 25.9632V25.9632C25.0136 26.3517 25.2904 26.6667 25.6318 26.6667H31.1076C31.4164 26.6667 31.6667 26.3818 31.6667 26.0304V26.0304C31.6667 25.6791 31.4164 25.3942 31.1076 25.3942H26.7678C26.7523 25.3942 26.7398 25.38 26.7398 25.3624V25.3624L29.1368 22.5631C30.9888 20.3999 31.4989 19.4535 31.4989 18.189C31.4989 16.4474 30.2131 15 28.3471 15C26.6332 15 25.2999 16.1637 25.0097 17.8194Z" fill="#FF16A2"/>
<path d="M14.1745 26.6667C16.811 26.6667 18.3333 24.3897 18.3333 20.8216C18.3333 17.277 16.8032 15 14.1745 15C11.5458 15 10 17.2926 10 20.8294C10 24.3975 11.5301 26.6667 14.1745 26.6667ZM14.1745 25.4382C12.4011 25.4382 11.4203 23.6385 11.4203 20.8216C11.4203 18.0673 12.4247 16.2363 14.1745 16.2363C15.9244 16.2363 16.9131 18.0516 16.9131 20.8294C16.9131 23.6463 15.9401 25.4382 14.1745 25.4382Z" fill="#FF16A2"/>
</svg>
