<svg width="40" height="40" viewBox="0 0 40 40" fill="none" xmlns="http://www.w3.org/2000/svg">
<path fill-rule="evenodd" clip-rule="evenodd" d="M18.3333 5.00001C11.89 5.00001 6.66667 10.2234 6.66667 16.6667C6.66667 23.11 11.89 28.3333 18.3333 28.3333C24.7767 28.3333 30 23.11 30 16.6667C30 10.2234 24.7767 5.00001 18.3333 5.00001ZM5 16.6667C5 9.30288 10.9695 3.33334 18.3333 3.33334C25.6971 3.33334 31.6667 9.30288 31.6667 16.6667C31.6667 24.0305 25.6971 30 18.3333 30C10.9695 30 5 24.0305 5 16.6667Z" fill="#1657FF"/>
<path fill-rule="evenodd" clip-rule="evenodd" d="M28.5774 26.9107C28.9028 26.5853 29.4305 26.5853 29.7559 26.9107L36.4226 33.5774C36.748 33.9029 36.748 34.4305 36.4226 34.7559C36.0971 35.0814 35.5695 35.0814 35.2441 34.7559L28.5774 28.0893C28.252 27.7638 28.252 27.2362 28.5774 26.9107Z" fill="#FF16A2"/>
</svg>
