<svg width="40" height="40" viewBox="0 0 40 40" fill="none" xmlns="http://www.w3.org/2000/svg">
<path fill-rule="evenodd" clip-rule="evenodd" d="M19.1667 13.3334C15.945 13.3334 13.3333 15.945 13.3333 19.1667C13.3333 22.3883 15.945 25 19.1667 25C22.3883 25 25 22.3883 25 19.1667C25 15.945 22.3883 13.3334 19.1667 13.3334ZM11.6667 19.1667C11.6667 15.0246 15.0245 11.6667 19.1667 11.6667C23.3088 11.6667 26.6667 15.0246 26.6667 19.1667C26.6667 23.3088 23.3088 26.6667 19.1667 26.6667C15.0245 26.6667 11.6667 23.3088 11.6667 19.1667Z" fill="#FF16A2"/>
<path fill-rule="evenodd" clip-rule="evenodd" d="M15.8422 4.77663C17.6408 2.85225 20.6925 2.85225 22.4911 4.77662L23.423 5.77374L22.8142 6.34276L23.423 5.77374C23.9915 6.38199 24.7951 6.71486 25.6272 6.68674L26.9912 6.64065C29.6238 6.55168 31.7817 8.70959 31.6927 11.3421L31.6466 12.7061C31.6185 13.5382 31.9514 14.3418 32.5596 14.9103L33.5567 15.8422C35.4811 17.6408 35.4811 20.6925 33.5567 22.4911L32.5596 23.423C31.9514 23.9915 31.6185 24.7951 31.6466 25.6272L31.6927 26.9913C31.7817 29.6238 29.6238 31.7817 26.9912 31.6927L25.6272 31.6466C24.7951 31.6185 23.9915 31.9514 23.423 32.5596L22.4911 33.5567C20.6925 35.4811 17.6408 35.4811 15.8422 33.5567L14.9103 32.5596C14.3418 31.9514 13.5382 31.6185 12.7061 31.6466L11.3421 31.6927C8.70958 31.7817 6.55167 29.6238 6.64064 26.9913L6.68673 25.6272C6.71485 24.7951 6.38198 23.9915 5.77373 23.423L4.77662 22.4911C2.85224 20.6926 2.85224 17.6408 4.77662 15.8422L5.33022 16.4346L4.77662 15.8422L5.77373 14.9103C6.38198 14.3418 6.71485 13.5382 6.68673 12.7061L6.64064 11.3421C6.55167 8.70959 8.70958 6.55168 11.3421 6.64065L12.7061 6.68674C13.5382 6.71486 14.3418 6.38199 14.9103 5.77374L15.8422 4.77663ZM21.2735 5.91466C20.1337 4.69513 18.1997 4.69513 17.0599 5.91466L16.128 6.91177C15.2309 7.87157 13.9628 8.39683 12.6498 8.35246L11.2858 8.30636C9.6175 8.24998 8.24997 9.61751 8.30635 11.2858L8.35245 12.6498C8.39682 13.9628 7.87156 15.2309 6.91176 16.128L5.91465 17.0599C4.69512 18.1997 4.69512 20.1337 5.91465 21.2735L6.91176 22.2054C7.87156 23.1024 8.39682 24.3705 8.35245 25.6835L8.30635 27.0475C8.24997 28.7158 9.6175 30.0834 11.2858 30.027L12.6498 29.9809C13.9628 29.9365 15.2309 30.4618 16.128 31.4216L17.0599 32.4187C18.1997 33.6382 20.1337 33.6382 21.2735 32.4187L22.2054 31.4216C23.1024 30.4618 24.3705 29.9365 25.6835 29.9809L27.0475 30.027C28.7158 30.0834 30.0834 28.7158 30.027 27.0475L29.9809 25.6835C29.9365 24.3705 30.4618 23.1024 31.4216 22.2054L32.4187 21.2735C33.6382 20.1337 33.6382 18.1997 32.4187 17.0599L31.4216 16.128C30.4618 15.2309 29.9365 13.9628 29.9809 12.6498L30.027 11.2858C30.0834 9.61751 28.7158 8.24998 27.0475 8.30636L25.6835 8.35246C24.3705 8.39683 23.1024 7.87157 22.2054 6.91177L21.2735 5.91466L21.8823 5.34564L21.2735 5.91466Z" fill="#1657FF"/>
</svg>
