<svg width="40" height="40" viewBox="0 0 40 40" fill="none" xmlns="http://www.w3.org/2000/svg">
<path fill-rule="evenodd" clip-rule="evenodd" d="M17.7581 5.99281C18.6752 4.1347 21.3248 4.1347 22.2418 5.99281L25.2577 12.1036C25.3791 12.3496 25.6137 12.5201 25.8851 12.5595L32.6288 13.5394C34.6794 13.8374 35.4981 16.3573 34.0143 17.8036L29.1346 22.5602C28.9382 22.7517 28.8485 23.0275 28.8949 23.2979L30.0469 30.0143C30.3971 32.0566 28.2536 33.614 26.4195 32.6497L20.3878 29.4787C20.145 29.351 19.855 29.351 19.6122 29.4787L13.5805 32.6497C11.7464 33.614 9.60281 32.0566 9.95309 30.0143L11.105 23.2979C11.1514 23.0275 11.0618 22.7517 10.8654 22.5602L5.98561 17.8036C4.50182 16.3573 5.32059 13.8374 7.37114 13.5394L14.1148 12.5595C14.3862 12.5201 14.6209 12.3496 14.7423 12.1036L17.7581 5.99281ZM20.7473 6.73042C20.4416 6.11105 19.5584 6.11105 19.2527 6.73042L16.2368 12.8412C15.8727 13.5791 15.1688 14.0905 14.3545 14.2088L7.61081 15.1888C6.92729 15.2881 6.65436 16.1281 7.14896 16.6102L12.0287 21.3668C12.6179 21.9411 12.8868 22.7686 12.7477 23.5796L11.5958 30.296C11.479 30.9768 12.1935 31.4959 12.8049 31.1745L18.8366 28.0034C19.5649 27.6205 20.435 27.6205 21.1633 28.0034L27.1951 31.1745C27.8064 31.4959 28.5209 30.9768 28.4042 30.296L27.2522 23.5796C27.1131 22.7686 27.382 21.9411 27.9712 21.3668L32.851 16.6102C33.3456 16.1281 33.0727 15.2881 32.3891 15.1888L25.6455 14.2088C24.8312 14.0905 24.1273 13.5791 23.7631 12.8412L20.7473 6.73042Z" fill="#1657FF"/>
</svg>
