<svg width="40" height="40" viewBox="0 0 40 40" fill="none" xmlns="http://www.w3.org/2000/svg">
<path fill-rule="evenodd" clip-rule="evenodd" d="M5.83333 5.00021C6.29357 5.00021 6.66667 5.37331 6.66667 5.83355V31.6669H35.8333C36.2936 31.6669 36.6667 32.04 36.6667 32.5002C36.6667 32.9605 36.2936 33.3336 35.8333 33.3336H5.83333C5.3731 33.3336 5 32.9605 5 32.5002V5.83355C5 5.37331 5.3731 5.00021 5.83333 5.00021Z" fill="#1657FF"/>
<path fill-rule="evenodd" clip-rule="evenodd" d="M34.5115 5.0749C34.9305 5.26535 35.1158 5.75939 34.9253 6.17837L26.592 24.5117C26.4567 24.8092 26.1601 25.0002 25.8333 25.0002H16.1785L11.4226 29.7561C11.0972 30.0816 10.5695 30.0816 10.2441 29.7561C9.91864 29.4307 9.91864 28.9031 10.2441 28.5776L15.2441 23.5776C15.4004 23.4213 15.6123 23.3335 15.8333 23.3335H25.2967L33.408 5.4887C33.5985 5.06972 34.0925 4.88445 34.5115 5.0749Z" fill="#FF16A2"/>
</svg>
