<svg width="40" height="40" viewBox="0 0 40 40" fill="none" xmlns="http://www.w3.org/2000/svg">
<path fill-rule="evenodd" clip-rule="evenodd" d="M3.33333 14.1667C3.33333 10.945 5.945 8.33334 9.16666 8.33334H19.1667C22.3883 8.33334 25 10.945 25 14.1667V24.1667C25 27.3883 22.3883 30 19.1667 30H9.16666C5.945 30 3.33333 27.3883 3.33333 24.1667V14.1667ZM9.16666 10C6.86548 10 4.99999 11.8655 4.99999 14.1667V24.1667C4.99999 26.4679 6.86548 28.3333 9.16666 28.3333H19.1667C21.4678 28.3333 23.3333 26.4679 23.3333 24.1667V14.1667C23.3333 11.8655 21.4678 10 19.1667 10H9.16666Z" fill="#1657FF"/>
<path fill-rule="evenodd" clip-rule="evenodd" d="M35 15.8402C35 13.8531 32.7935 12.6602 31.1308 13.7485L29.4642 14.8394C28.7585 15.3013 28.3333 16.0878 28.3333 16.9312V22.4179C28.3333 23.2613 28.7585 24.0478 29.4642 24.5097L31.1308 25.6006C32.7935 26.6889 35 25.496 35 23.5088V15.8402ZM30.2181 12.354C32.9892 10.5402 36.6667 12.5283 36.6667 15.8402V23.5088C36.6667 26.8208 32.9892 28.8089 30.2181 26.9951L28.5514 25.9042C27.3753 25.1344 26.6667 23.8235 26.6667 22.4179V16.9312C26.6667 15.5256 27.3753 14.2147 28.5514 13.4449L30.2181 12.354Z" fill="#FF16A2"/>
</svg>
