<svg width="283" height="476" viewBox="0 0 283 476" fill="none" xmlns="http://www.w3.org/2000/svg">
<g clip-path="url(#clip0_30_2251)">
<path d="M85.5884 437.783C93.598 436.181 102.523 437.783 159.506 437.783C216.488 437.783 249.213 435.952 265.004 433.435C280.794 430.917 316.036 436.867 306.425 445.335C296.813 453.802 202.758 465.931 186.738 459.065C170.719 452.2 45.7692 466.846 55.8384 450.14C63.8938 436.776 79.0282 436.333 85.5884 437.783Z" fill="black" fill-opacity="0.13"/>
<g clip-path="url(#clip1_30_2251)">
<path d="M134.41 104.677C133.257 105.329 132.078 105.411 131.766 104.865L128.354 98.8461C128.042 98.2993 128.724 97.3293 129.873 96.6758C131.025 96.0244 132.21 95.9397 132.518 96.4845L135.93 102.503C136.243 103.05 135.558 104.024 134.41 104.677Z" fill="#2B242A"/>
<path d="M130.099 95.573C130.099 95.573 128.623 97.3051 130.925 101.363C133.227 105.421 135.474 105.044 135.474 105.044C135.474 105.044 161.74 88.7908 165.229 86.8159C168.718 84.8409 165.455 77.4009 161.246 79.7914C157.037 82.182 130.099 95.573 130.099 95.573Z" fill="#BC7BFB"/>
<g style="mix-blend-mode:soft-light">
<path d="M135.091 104.176C139.633 101.368 160.883 88.2411 163.995 86.473L164.06 86.4338C160.766 84.5656 134.753 103.412 135.091 104.176Z" fill="white"/>
</g>
<g style="mix-blend-mode:multiply">
<path d="M135.397 103.429C134.894 101.727 134.796 99.959 135.572 98.3109C136.555 96.2133 138.275 94.5862 140.023 93.1106C144.16 89.6233 148.541 86.6238 153.885 85.3791C157.82 84.4659 162.148 84.3488 165.706 86.4693C168.398 84.112 165.24 77.525 161.246 79.7915C157.041 82.1738 130.101 95.569 130.101 95.569C130.101 95.569 128.625 97.301 130.927 101.359C133.229 105.417 135.476 105.04 135.476 105.04L135.91 104.769C135.707 104.335 135.535 103.888 135.397 103.429Z" fill="#BC7BFB"/>
</g>
<g style="mix-blend-mode:soft-light">
<g style="mix-blend-mode:soft-light">
<path d="M137.497 103.796L129.884 98.9519C130.034 99.4747 130.229 99.9837 130.466 100.473L136.576 104.362C136.831 104.217 137.149 104.007 137.497 103.796Z" fill="white"/>
</g>
<g style="mix-blend-mode:soft-light">
<path d="M141.305 101.442L131.206 95.0161L130.185 95.5337L140.379 102.017C140.683 101.825 140.991 101.634 141.305 101.442Z" fill="white"/>
</g>
<g style="mix-blend-mode:soft-light">
<path d="M146.366 98.3181L136.796 92.2349C136.447 92.4047 136.116 92.5786 135.776 92.7525L145.442 98.8987L146.366 98.3181Z" fill="white"/>
</g>
<g style="mix-blend-mode:soft-light">
<path d="M151.432 95.2022L142.356 89.4333L141.339 89.9529L150.488 95.7726L151.432 95.2022Z" fill="white"/>
</g>
<g style="mix-blend-mode:soft-light">
<path d="M156.507 92.0902L147.962 86.6498L146.946 87.1695L155.57 92.6442L156.507 92.0902Z" fill="white"/>
</g>
<g style="mix-blend-mode:soft-light">
<path d="M161.594 88.9843L153.481 83.8485C153.15 84.0121 152.807 84.1799 152.469 84.3702L160.668 89.5485L161.594 88.9843Z" fill="white"/>
</g>
<g style="mix-blend-mode:soft-light">
<path d="M164.676 84.6043L158.999 80.9957L157.999 81.5235L165.693 86.412L164.676 84.6043Z" fill="white"/>
</g>
</g>
<path d="M169.878 83.7289C173.766 81.5224 205.389 81.9208 213.998 82.2087C212.319 79.9218 194.407 74.0342 194.407 74.0342C194.407 74.0342 197.868 77.5 192.627 77.7493C185.441 78.0959 177.074 78.2487 175.404 78.2829C172.749 78.3269 172.491 76.9447 173.632 75.2003C174.324 74.138 178.791 66.9665 183.024 60.8115C185.147 57.7248 187.165 61.3218 187.165 61.3218C187.165 61.3218 193.925 36.2881 190.167 40.1866C185.838 49.218 170.41 74.8423 166.191 77.2227C161.971 79.6031 165.987 85.9293 169.878 83.7289Z" fill="#352E35"/>
<path d="M210.142 24.1709C227.096 14.5548 247.072 17.7552 254.769 31.3246C262.06 44.184 255.677 61.7546 240.557 71.7184C241.191 72.5969 241.912 73.4524 242.454 74.3827C259.348 63.2522 266.452 43.6591 258.318 29.3083C249.738 14.1761 227.449 10.5961 208.533 21.3268C206.303 22.5874 204.177 24.0219 202.173 25.6171C202.817 26.5054 203.51 27.3576 204.247 28.1698C206.101 26.6794 208.072 25.342 210.142 24.1709Z" fill="#BC7BFB"/>
<path d="M257.726 44.737L256.971 45.161L255.245 42.1518L257.678 40.7541C257.661 40.5413 257.637 40.3306 257.613 40.1199L254.963 41.6254L253.247 38.6161L256.272 36.8976L257.451 38.9684C257.345 38.3447 257.219 37.7314 257.068 37.1162L256.801 36.6223L256.936 36.5458C256.883 36.3517 256.829 36.1616 256.777 35.9573L256.522 36.102L254.803 33.0764L255.505 32.6875L255.25 32.1691L254.536 32.5826L252.82 29.5529L253.43 29.2055L253.085 28.7346L252.532 29.049L250.988 26.3744C250.543 25.9308 250.08 25.5036 249.58 25.0889L249.961 25.7868L246.931 27.5032L245.239 24.4652L247.243 23.3298C247.062 23.2101 246.877 23.0884 246.692 22.9769L244.956 23.9633L243.413 21.2437C243.06 21.0697 242.689 20.9326 242.322 20.7874L239.425 22.4212L237.706 19.3956L236.845 19.2163L233.879 20.9079L232.626 18.6983L231.936 18.6593L233.385 21.1748L230.356 22.8912L228.639 19.8615L230.826 18.6228C230.431 18.6169 230.038 18.6171 229.641 18.6255L228.331 19.3679L227.951 18.7008L227.314 18.7495L227.827 19.6554L224.798 21.3718L223.59 19.2459L222.989 19.3579L224.292 21.6634L221.28 23.3736L219.564 20.3438L220.117 20.0295C219.26 20.2658 218.402 20.5266 217.554 20.8078L215.749 21.8315L215.588 21.5888L215.037 21.8274L215.239 22.1824L212.211 23.8538L211.864 23.2438C211.688 23.3308 211.518 23.4171 211.354 23.5026L211.707 24.131L208.686 25.8413L208.34 25.2374L207.851 25.5473L208.178 26.1267L205.152 27.8452L204.979 27.5862C204.822 27.7079 204.667 27.8255 204.514 27.9491L204.626 28.1471L203.465 28.8047C202.755 29.4106 202.071 30.0361 201.412 30.6813L203.114 33.6886L200.085 35.405L198.906 33.324C198.77 33.4762 198.636 33.6346 198.507 33.7909L199.583 35.6883L196.565 37.4109L196.22 36.807C196.1 36.9878 195.977 37.1666 195.857 37.3474L196.057 37.6963L195.39 38.0768C195.179 38.4116 194.977 38.7505 194.778 39.0915L196.345 38.2002L198.061 41.2299L195.015 42.9383L193.812 40.8144C193.708 41.0238 193.609 41.2249 193.502 41.4425L194.515 43.2277L192.179 44.5512C192.022 44.984 191.873 45.4209 191.728 45.8598L193.286 48.6018L190.717 50.0556C190.677 50.3015 190.646 50.5309 190.606 50.787L193.569 49.1037L195.289 52.1354L192.26 53.8519L190.589 50.9058C190.546 51.2315 190.507 51.5593 190.484 51.8746L191.758 54.125L190.348 54.915C190.353 55.132 190.359 55.3489 190.368 55.5679L192.033 54.6228L193.749 57.6525L190.82 59.3111C191.001 60.2018 191.234 61.0813 191.516 61.9455L192.22 63.19L192.009 63.3059L192.248 63.8572L192.523 63.7021L194.24 66.7318L193.86 66.9427C193.962 67.11 194.065 67.2732 194.174 67.4342L194.527 67.2357L196.016 69.8676C196.53 70.4571 197.073 71.0197 197.645 71.553L197.035 70.4819L200.065 68.7654L201.777 71.7931L199.468 73.1042C199.632 73.2363 199.801 73.3602 199.973 73.4861L202.085 72.3072L203.802 75.3369L203.389 75.5726L204.018 75.8822L204.089 75.8408L204.149 75.9469C204.445 76.0926 204.74 76.2382 205.05 76.3552L204.593 75.5534L207.623 73.8369L209.339 76.8666L208.221 77.4994C208.483 77.5778 208.742 77.654 209.004 77.7221L209.627 77.3706L209.966 77.9663L210.728 78.1379L210.108 77.0566L212.833 75.5118L214.55 78.5416L214.344 78.6594C214.686 78.6902 215.028 78.721 215.374 78.7435L218.365 77.0437L219.349 78.784L220 78.7475L218.863 76.7788L221.892 75.0623L223.437 77.7881L222.023 78.5863C222.557 78.5382 223.05 78.4596 223.57 78.3788L223.719 78.2941L223.752 78.3512L224.359 78.2474L224.223 78.0066L227.252 76.2902L227.914 77.4531L228.501 77.2982L227.768 76.0088L230.798 74.2924L231.867 76.1816L232.415 75.9717L231.302 74.0049L234.332 72.2885L235.616 74.5593L236.135 74.3045L234.832 72.0093L237.861 70.2928L239.173 72.6126L239.668 72.3108L238.363 70.0095L241.393 68.293L242.553 70.3394C242.712 70.2238 242.867 70.1063 243.022 69.9887L241.897 68.0056L244.927 66.2892L245.754 67.7172C245.902 67.5812 246.045 67.4474 246.191 67.3155L245.441 65.9914L248.47 64.275L248.749 64.7442C248.89 64.5939 249.022 64.4396 249.158 64.2874L248.995 63.9977L249.787 63.551C250.118 63.1478 250.445 62.7427 250.76 62.3315L248.707 63.4937L247.163 60.768L250.16 59.0354L251.458 61.3286C251.584 61.1559 251.708 60.9771 251.83 60.8024L250.663 58.748L253.693 57.0315L253.914 57.4212C254.016 57.2159 254.117 57.0106 254.218 56.8054L254.181 56.736L254.285 56.6801C254.438 56.3681 254.59 56.0602 254.742 55.7523L253.893 56.2321L252.177 53.2024L255.206 51.4859L255.968 52.8304C256.056 52.5884 256.141 52.3443 256.219 52.1023L255.71 51.1985L256.673 50.6525C256.746 50.3921 256.816 50.1256 256.882 49.8674L255.429 50.6822L253.713 47.6525L256.753 45.9565L257.45 47.1929C257.503 46.8773 257.546 46.5619 257.587 46.2403L257.259 45.6649L257.671 45.4292C257.692 45.1998 257.713 44.9705 257.726 44.737ZM203.622 33.3827L201.906 30.353L204.936 28.6365L206.652 31.6662L203.622 33.3827ZM207.16 31.3808L205.444 28.3511L208.473 26.6347L210.19 29.6644L207.16 31.3808ZM210.698 29.379L208.981 26.3492L212.011 24.6328L213.728 27.6625L210.698 29.379ZM214.236 27.3771L212.517 24.3515L215.547 22.635L217.265 25.6607L214.236 27.3771ZM217.771 25.3793L216.026 22.3559L219.056 20.6395L220.772 23.6692L217.771 25.3793ZM198.579 40.924L196.83 37.9088L199.86 36.1923L201.578 39.2179L198.579 40.924ZM202.115 38.9262L200.368 35.9069L203.398 34.1905L205.114 37.2202L202.115 38.9262ZM205.653 36.9243L203.906 33.905L206.935 32.1886L208.652 35.2183L205.653 36.9243ZM209.191 34.9225L207.444 31.9032L210.473 30.1867L212.19 33.2164L209.191 34.9225ZM212.728 32.9206L210.981 29.9013L214.011 28.1849L215.727 31.2146L212.728 32.9206ZM216.266 30.9188L214.517 27.9036L217.547 26.1871L219.265 29.2127L216.266 30.9188ZM219.804 28.9169L218.085 25.8913L221.115 24.1749L222.834 27.2005L219.804 28.9169ZM223.34 26.9192L221.623 23.8894L224.653 22.173L226.369 25.2027L223.34 26.9192ZM226.877 24.9173L225.161 21.8876L228.191 20.1711L229.907 23.2008L226.877 24.9173ZM193.789 48.3041L192.073 45.2744L194.799 43.7296L196.515 46.7593L193.789 48.3041ZM197.019 46.4719L195.303 43.4422L198.332 41.7257L200.049 44.7554L197.019 46.4719ZM200.557 44.47L198.838 41.4444L201.868 39.728L203.586 42.7536L200.557 44.47ZM204.092 42.4723L202.376 39.4426L205.406 37.7261L207.122 40.7558L204.092 42.4723ZM207.63 40.4704L205.914 37.4407L208.943 35.7243L210.66 38.754L207.63 40.4704ZM211.168 38.4686L209.452 35.4388L212.481 33.7224L214.198 36.7521L211.168 38.4686ZM214.706 36.4667L212.989 33.437L216.019 31.7205L217.735 34.7502L214.706 36.4667ZM218.243 34.4648L216.525 31.4392L219.555 29.7228L221.273 32.7484L218.243 34.4648ZM221.781 32.463L220.063 29.4374L223.092 27.7209L224.79 30.7159L221.781 32.463ZM225.317 30.4652L223.6 27.4355L226.63 25.7191L228.347 28.7488L225.317 30.4652ZM228.855 28.4634L227.138 25.4337L230.168 23.7172L231.884 26.7469L228.855 28.4634ZM232.392 26.4615L230.643 23.3951L233.673 21.6787L235.387 24.7125L232.392 26.4615ZM235.93 24.4596L234.214 21.4299L237.243 19.7135L238.96 22.7432L235.93 24.4596ZM195.793 51.8378L194.077 48.808L196.811 47.2673L198.527 50.297L195.793 51.8378ZM199.031 50.0096L197.315 46.9799L200.348 45.2654L202.065 48.2951L199.031 50.0096ZM202.569 48.0077L200.85 44.9821L203.884 43.2677L205.603 46.2933L202.569 48.0077ZM206.109 46.0017L204.392 42.972L207.422 41.2658L209.138 44.2955L206.109 46.0017ZM209.646 43.9999L207.93 40.9702L210.96 39.2537L212.676 42.2834L209.646 43.9999ZM213.184 41.998L211.468 38.9683L214.493 37.2498L216.214 40.2816L213.184 41.998ZM216.722 39.9962L215.005 36.9664L218.031 35.248L219.752 38.2797L216.722 39.9962ZM220.26 37.9943L218.541 34.9687L221.571 33.2522L223.289 36.2779L220.26 37.9943ZM223.797 35.9924L222.079 32.9668L225.104 31.2484L226.827 34.276L223.797 35.9924ZM227.333 33.9947L225.617 30.965L228.642 29.2465L230.359 32.2762L227.333 33.9947ZM230.871 31.9928L229.154 28.9631L232.18 27.2446L233.896 30.2744L230.871 31.9928ZM234.409 29.991L232.645 26.9329L235.67 25.2144L237.385 28.2482L234.409 29.991ZM237.946 27.9891L236.23 24.9594L239.255 23.2409L240.972 26.2706L237.946 27.9891ZM241.484 25.9873L239.766 22.9617L242.791 21.2432L244.51 24.2688L241.484 25.9873ZM194.321 57.3934L192.604 54.3636L195.634 52.6472L197.273 55.6487L194.321 57.3934ZM197.859 55.3915L196.146 52.3638L198.872 50.819L200.584 53.8467L197.859 55.3915ZM201.092 53.5613L199.298 50.5034L202.324 48.7849L204.04 51.8146L201.092 53.5613ZM204.63 51.5594L202.834 48.5056L205.859 46.7871L207.578 49.8128L204.63 51.5594ZM208.168 49.5576L206.371 46.5038L209.397 44.7853L211.116 47.8109L208.168 49.5576ZM211.704 47.5598L209.909 44.5019L212.935 42.7834L214.651 45.8131L211.704 47.5598ZM215.241 45.558L213.447 42.5L216.473 40.7816L218.193 43.7928L215.241 45.558ZM218.779 43.5561L216.985 40.4982L220.01 38.7797L221.727 41.8094L218.779 43.5561ZM222.317 41.5542L220.52 38.5004L223.546 36.782L225.264 39.8076L222.317 41.5542ZM225.855 39.5524L224.066 36.4821L227.092 34.7637L228.79 37.7894L225.855 39.5524ZM229.39 37.5546L227.596 34.4967L230.621 32.7782L232.34 35.8038L229.39 37.5546ZM232.928 35.5528L231.212 32.5231L234.241 30.8066L235.958 33.8363L232.928 35.5528ZM236.466 33.5509L234.643 30.4686L237.672 28.7521L239.387 31.786L236.466 33.5509ZM240.003 31.5491L238.287 28.5193L241.317 26.8029L243.033 29.8326L240.003 31.5491ZM243.541 29.5472L241.823 26.5216L244.852 24.8051L246.571 27.8307L243.541 29.5472ZM192.73 62.9108L191.013 59.881L194.043 58.1646L195.759 61.1943L192.73 62.9108ZM196.267 60.9089L194.551 57.8792L197.581 56.1627L199.297 59.1925L196.267 60.9089ZM199.805 58.907L198.08 55.8733L200.806 54.3285L202.523 57.3582L199.805 58.907ZM203.039 57.0768L201.322 54.0471L204.348 52.3287L206.064 55.3584L203.039 57.0768ZM206.577 55.075L204.862 52.0514L207.888 50.3329L209.606 53.3585L206.577 55.075ZM210.114 53.0731L208.396 50.0475L211.426 48.3311L213.144 51.3567L210.114 53.0731ZM213.65 51.0754L211.934 48.0456L214.963 46.3292L216.68 49.3589L213.65 51.0754ZM217.188 49.0735L215.455 46.0152L218.48 44.2968L220.195 47.3306L217.188 49.0735ZM220.726 47.0716L219.009 44.0419L222.039 42.3255L223.755 45.3552L220.726 47.0716ZM224.263 45.0698L222.547 42.0401L225.575 40.3277L227.293 43.3533L224.263 45.0698ZM227.801 43.0679L226.048 40.0098L229.077 38.2933L230.792 41.3271L227.801 43.0679ZM231.337 41.0702L229.62 38.0405L232.65 36.324L234.368 39.3496L231.337 41.0702ZM234.874 39.0683L233.158 36.0386L236.188 34.3222L237.904 37.3519L234.874 39.0683ZM238.412 37.0665L236.644 34.0063L239.674 32.2899L241.389 35.3237L238.412 37.0665ZM241.95 35.0646L240.234 32.0349L243.263 30.3184L244.98 33.3481L241.95 35.0646ZM245.488 33.0627L243.769 30.0371L246.799 28.3207L248.517 31.3463L245.488 33.0627ZM249.025 31.0609L247.241 28.0029L250.271 26.2865L251.985 29.3203L249.025 31.0609ZM194.734 66.4444L193.017 63.4147L196.047 61.6982L197.763 64.7279L194.734 66.4444ZM198.271 64.4425L196.555 61.4128L199.585 59.6964L201.301 62.7261L198.271 64.4425ZM201.809 62.4407L200.093 59.411L202.818 57.8662L204.535 60.8959L201.809 62.4407ZM205.039 60.6084L203.322 57.5787L206.352 55.8623L208.068 58.892L205.039 60.6084ZM208.576 58.6066L206.858 55.581L209.888 53.8645L211.606 56.8901L208.576 58.6066ZM212.112 56.6088L210.396 53.5791L213.425 51.8627L215.144 54.8883L212.112 56.6088ZM215.65 54.607L213.933 51.5773L216.963 49.8608L218.68 52.8905L215.65 54.607ZM219.188 52.6051L217.453 49.5509L220.482 47.8345L222.197 50.8683L219.188 52.6051ZM222.725 50.6033L221.009 47.5735L224.039 45.8571L225.755 48.8868L222.725 50.6033ZM226.263 48.6014L224.547 45.5717L227.574 43.8593L229.293 46.8849L226.263 48.6014ZM229.801 46.5995L228.049 43.5475L231.079 41.8311L232.794 44.8649L229.801 46.5995ZM233.337 44.6018L231.62 41.5721L234.65 39.8556L236.366 42.8853L233.337 44.6018ZM236.874 42.5999L235.158 39.5702L238.188 37.8538L239.904 40.8835L236.874 42.5999ZM240.412 40.5981L238.646 37.5441L241.676 35.8276L243.39 38.8614L240.412 40.5981ZM243.95 38.5962L242.233 35.5665L245.263 33.85L246.979 36.8798L243.95 38.5962ZM247.487 36.5943L245.769 33.5687L248.801 31.8482L250.517 34.8779L247.487 36.5943ZM251.025 34.5925L249.243 31.5406L252.273 29.8242L253.987 32.858L251.025 34.5925ZM196.746 69.9616L195.029 66.9319L198.059 65.2154L199.775 68.2452L196.746 69.9616ZM200.283 67.9597L198.567 64.93L201.597 63.2136L203.313 66.2433L200.283 67.9597ZM203.821 65.9579L202.105 62.9282L204.83 61.3834L206.547 64.4131L203.821 65.9579ZM207.051 64.1257L205.301 61.1002L208.331 59.3838L210.048 62.4135L207.051 64.1257ZM210.588 62.1238L208.845 59.086L211.875 57.3696L213.602 60.4095L210.588 62.1238ZM214.126 60.1219L212.375 57.1006L215.405 55.3842L217.123 58.4098L214.126 60.1219ZM217.662 58.1242L215.913 55.0988L218.942 53.3823L220.659 56.412L217.662 58.1242ZM221.2 56.1223L219.454 53.0887L222.484 51.3722L224.199 54.4061L221.2 56.1223ZM224.737 54.1205L222.988 51.095L226.018 49.3786L227.734 52.4083L224.737 54.1205ZM228.275 52.1186L226.526 49.0932L229.556 47.3767L231.272 50.4064L228.275 52.1186ZM231.813 50.1167L230.064 47.0913L233.093 45.3749L234.795 48.4026L231.813 50.1167ZM235.351 48.1149L233.599 45.0936L236.629 43.3771L238.348 46.4027L235.351 48.1149ZM238.886 46.1171L237.137 43.0917L240.154 41.3487L241.871 44.3784L238.886 46.1171ZM242.424 44.1153L240.648 41.0818L243.678 39.3654L245.392 42.3992L242.424 44.1153ZM245.962 42.1134L244.245 39.0837L247.275 37.3673L248.991 40.397L245.962 42.1134ZM249.499 40.1116L247.781 37.0859L250.751 35.3453L252.468 38.375L249.499 40.1116ZM253.037 38.1097L251.245 35.0784L254.275 33.3619L255.989 36.3957L253.037 38.1097ZM202.275 71.5078L200.558 68.4781L203.588 66.7616L205.301 69.7893L202.275 71.5078ZM205.813 69.5059L204.096 66.4762L206.822 64.9314L208.538 67.9611L205.813 69.5059ZM209.042 67.6737L207.326 64.644L210.356 62.9275L212.072 65.9572L209.042 67.6737ZM212.58 65.6718L210.859 62.6299L213.889 60.9134L215.608 63.939L212.58 65.6718ZM216.118 63.67L214.399 60.6444L217.429 58.9279L219.148 61.9535L216.118 63.67ZM219.654 61.6722L217.937 58.6425L220.967 56.9261L222.683 59.9558L219.654 61.6722ZM223.191 59.6704L221.456 56.6264L224.486 54.91L226.2 57.9438L223.191 59.6704ZM226.729 57.6685L225.013 54.6388L228.042 52.9223L229.759 55.9521L226.729 57.6685ZM230.267 55.6666L228.55 52.6369L231.559 50.8899L233.272 53.9176L230.267 55.6666ZM233.804 53.6648L232.053 50.623L235.083 48.9065L236.793 51.9383L233.804 53.6648ZM237.342 51.6629L235.624 48.6373L238.653 46.9209L240.368 49.9444L237.342 51.6629ZM240.878 49.6652L239.161 46.6355L242.156 44.8865L243.869 47.9141L240.878 49.6652ZM244.416 47.6633L242.65 44.6196L245.68 42.9031L247.39 45.9349L244.416 47.6633ZM247.953 45.6614L246.237 42.6317L249.267 40.9153L250.979 43.943L247.953 45.6614ZM251.491 43.6596L249.773 40.634L252.804 38.9134L254.517 41.9411L251.491 43.6596ZM204.332 75.0677L202.616 72.038L205.641 70.3195L207.358 73.3492L204.332 75.0677ZM207.87 73.0659L206.153 70.0361L208.818 68.461L210.534 71.4907L207.87 73.0659ZM211.1 71.2336L209.383 68.2039L212.413 66.4875L214.129 69.5172L211.1 71.2336ZM214.637 69.2318L212.861 66.1676L215.889 64.4553L217.603 67.4788L214.637 69.2318ZM218.175 67.2299L216.457 64.2043L219.486 62.4879L221.201 65.5114L218.175 67.2299ZM221.713 65.228L219.994 62.2024L223.02 60.484L224.736 63.5137L221.713 65.228ZM225.249 63.2303L223.458 60.1642L226.504 58.4558L228.217 61.4835L225.249 63.2303ZM228.786 61.2284L227.07 58.1987L230.095 56.4803L231.812 59.51L228.786 61.2284ZM232.324 59.2266L230.608 56.1969L233.557 54.4256L235.274 57.4553L232.324 59.2266ZM235.862 57.2247L234.055 54.1607L237.081 52.4423L238.795 55.4761L235.862 57.2247ZM239.399 55.2229L237.681 52.1973L240.707 50.4788L242.425 53.5044L239.399 55.2229ZM242.935 53.2251L241.223 50.1974L244.154 48.4222L245.87 51.4519L242.935 53.2251ZM246.473 51.2232L244.652 48.1573L247.677 46.4388L249.392 49.4726L246.473 51.2232ZM250.011 49.2214L248.294 46.1917L251.32 44.4732L253.036 47.5029L250.011 49.2214ZM253.548 47.2195L251.83 44.1939L254.862 42.4734L256.578 45.5031L253.548 47.2195ZM246.739 61.0898L248.284 63.8155L245.254 65.532L243.709 62.8062L246.739 61.0898ZM243.203 63.0875L244.748 65.8133L241.718 67.5297L240.056 64.7719L243.203 63.0875ZM239.583 65.0489L241.128 67.7747L238.098 69.4911L236.553 66.7654L239.583 65.0489ZM236.045 67.0508L237.59 69.7765L234.561 71.493L233.016 68.7673L236.045 67.0508ZM232.508 69.0527L234.053 71.7784L231.023 73.4948L229.46 70.7754L232.508 69.0527ZM228.974 71.0463L230.519 73.772L227.489 75.4885L225.944 72.7628L228.974 71.0463ZM225.436 73.0482L226.983 75.7698L223.953 77.4862L222.407 74.7646L225.436 73.0482ZM251.699 53.4876L253.416 56.5173L250.386 58.2337L248.651 55.2307L251.699 53.4876ZM248.162 55.4894L249.878 58.5192L246.848 60.2356L245.132 57.2059L248.162 55.4894ZM244.624 57.4913L246.342 60.5169L243.313 62.2436L241.594 59.218L244.624 57.4913ZM241.086 59.4932L242.799 62.5516L239.769 64.268L238.055 61.2342L241.086 59.4932ZM237.551 61.4909L239.267 64.5206L236.237 66.2371L234.521 63.2074L237.551 61.4909ZM234.013 63.4928L235.729 66.5225L232.7 68.2389L230.983 65.2092L234.013 63.4928ZM230.475 65.4946L232.191 68.5243L229.166 70.2428L227.445 67.2111L230.475 65.4946ZM226.937 67.4965L228.654 70.5262L225.624 72.2427L223.908 69.2129L226.937 67.4965ZM223.4 69.4983L225.118 72.524L222.088 74.2404L220.37 71.2148L223.4 69.4983ZM219.864 71.4961L221.626 74.5685L218.6 76.287L216.865 73.2431L219.864 71.4961ZM216.326 73.498L218.043 76.5277L215.017 78.2461L213.301 75.2164L216.326 73.498ZM209.783 76.5447L208.067 73.515L210.789 71.9682L212.505 74.9979L209.783 76.5447ZM213.013 74.7125L211.297 71.6828L214.322 69.9643L216.039 72.994L213.013 74.7125ZM216.551 72.7107L214.863 69.7053L217.887 67.991L219.605 71.0166L216.551 72.7107ZM220.089 70.7088L218.378 67.6975L221.404 65.979L223.122 69.0046L220.089 70.7088ZM223.624 68.711L221.916 65.6956L224.962 63.9668L226.679 66.9965L223.624 68.711ZM227.162 66.7092L225.452 63.6979L228.477 61.9794L230.194 65.0091L227.162 66.7092ZM230.7 64.7073L228.979 61.6756L232.009 59.9591L233.725 62.9889L230.7 64.7073ZM234.237 62.7055L232.529 59.69L235.559 57.9634L237.275 60.9931L234.237 62.7055ZM237.775 60.7036L236.061 57.7005L239.087 55.982L240.797 59.0138L237.775 60.7036ZM241.313 58.7017L239.603 55.6904L242.632 53.974L244.351 56.9996L241.313 58.7017ZM244.849 56.704L243.141 53.6886L246.156 51.9599L247.872 54.9896L244.849 56.704ZM248.386 54.7021L246.67 51.7031L249.7 49.9867L251.394 53.0104L248.386 54.7021ZM254.946 50.9798L251.92 52.6983L250.199 49.6665L253.229 47.9501L254.946 50.9798Z" fill="url(#paint0_linear_30_2251)"/>
<path d="M244.26 73.1604C243.384 72.4716 242.562 71.7153 241.803 70.8985C240.583 71.7636 239.321 72.5668 238.02 73.305C221.043 82.9049 201.088 79.7146 193.393 66.1513C186.356 53.7694 191.978 37.069 205.869 26.9282C205.118 26.1296 204.458 25.2498 203.901 24.3052C188.302 35.6042 181.969 54.3167 189.817 68.1493C198.395 83.2856 220.673 86.8555 239.602 76.1308C241.21 75.2292 242.765 74.2375 244.26 73.1604Z" fill="#352E35"/>
<path d="M209.05 24.8118L206.911 22.2881C204.753 23.6212 202.705 25.1231 200.784 26.7796L202.915 29.2993C204.826 27.6281 206.879 26.1266 209.05 24.8118Z" fill="#D1D1D1"/>
<path d="M239.419 72.4434L241.555 74.9651C243.701 73.6133 245.738 72.0958 247.649 70.4267L245.509 67.903C243.616 69.5918 241.578 71.1111 239.419 72.4434Z" fill="#D1D1D1"/>
<g style="mix-blend-mode:soft-light">
<path d="M255.618 30.6565C263.185 44.0035 256.321 62.2811 240.302 72.0924C240.753 71.866 241.198 71.626 241.636 71.3724C258.229 61.9916 264.624 43.6718 256.871 29.9676C249.118 16.2635 228.987 13.8643 214.922 20.7045C210.692 22.7738 206.706 25.3067 203.036 28.2567C204.926 27.0197 212.081 22.1824 217.506 20.1921C232.709 14.5858 248.837 18.707 255.618 30.6565Z" fill="white"/>
</g>
<path d="M191.136 67.6053C183.219 53.6422 191.289 39.5149 194.374 33.9377C185.759 43.9129 183.716 57.4179 189.903 68.3043C196.678 80.2558 211.943 84.2675 225.003 81.3201C217.369 82.2322 198.227 80.1159 191.136 67.6053Z" fill="#2B242A"/>
<path d="M170.347 84.5572C170.092 84.6786 169.798 84.6943 169.531 84.6008C169.264 84.5073 169.044 84.3122 168.92 84.0579L165.508 78.0392C165.352 77.802 165.297 77.5128 165.355 77.235C165.412 76.9572 165.577 76.7136 165.814 76.5576C166.07 76.4349 166.364 76.4186 166.631 76.5122C166.899 76.6058 167.118 76.8017 167.242 77.0569L170.652 83.0694C170.807 83.3076 170.862 83.5974 170.805 83.8759C170.748 84.1544 170.584 84.3992 170.347 84.5572Z" fill="#2B242A"/>
<path d="M165.489 77.3792L162.117 79.2915L166.099 86.3146L169.471 84.4023L165.489 77.3792Z" fill="#161013"/>
<path d="M166.375 86.8094C166.118 86.9319 165.824 86.9479 165.556 86.854C165.287 86.76 165.067 86.5637 164.943 86.308L161.533 80.2955C161.378 80.0573 161.323 79.7675 161.38 79.489C161.437 79.2105 161.601 78.9657 161.838 78.8077C162.095 78.686 162.389 78.6709 162.657 78.7656C162.925 78.8604 163.144 79.0572 163.267 79.3132L166.677 85.3256C166.832 85.5632 166.886 85.8519 166.83 86.1294C166.773 86.4069 166.61 86.6511 166.375 86.8094Z" fill="#2B242A"/>
</g>
<path d="M131.251 181.704C129.786 177.127 130.641 141.656 131.251 124.492L139.596 127.467C138.91 134.333 147.041 156.073 147.041 157.935C151.907 154.831 160.14 152.488 165.349 151.496C168.629 155.081 174.961 162.526 174.045 163.625C172.901 164.998 133.082 187.425 131.251 181.704Z" fill="#FF7CA6"/>
<mask id="mask0_30_2251" style="mask-type:alpha" maskUnits="userSpaceOnUse" x="130" y="124" width="45" height="59">
<path d="M131.251 181.704C129.786 177.127 130.641 141.656 131.251 124.492L139.596 127.467C138.91 134.333 147.041 156.073 147.041 157.935C151.907 154.831 160.14 152.488 165.349 151.496C168.629 155.081 174.961 162.526 174.045 163.625C172.901 164.998 133.082 187.425 131.251 181.704Z" fill="#FF7CA6"/>
</mask>
<g mask="url(#mask0_30_2251)">
<path d="M128.505 184.908C127.04 180.331 127.895 144.86 128.505 127.696L136.85 130.671C136.163 137.536 144.295 159.277 144.295 161.139C149.161 158.035 157.394 155.692 162.603 154.7C165.883 158.285 172.214 165.73 171.299 166.829C170.155 168.202 130.336 190.629 128.505 184.908Z" fill="#FB94B5"/>
<path d="M127.132 189.484C125.667 184.908 126.522 149.436 127.132 132.273L135.019 129.069C134.333 135.934 142.922 163.854 142.922 165.716C147.788 162.612 156.021 160.269 161.23 159.277C164.51 162.862 170.841 170.307 169.926 171.406C168.782 172.779 128.963 195.206 127.132 189.484Z" fill="#FFAFC9"/>
<path d="M131.815 135.935C131.999 134.653 131.129 130.671 130.671 128.84L124.035 181.933C127.315 182.924 134.195 184.999 135.477 185.365C137.079 185.823 148.581 178.381 146.919 178.5C140.512 178.958 133.417 181.704 132.731 180.788C132.044 179.873 132.273 178.271 132.273 175.296C132.273 172.907 132.044 161.108 131.815 159.277C131.587 157.446 131.815 152.869 131.815 151.725C131.815 150.581 131.587 137.536 131.815 135.935Z" fill="#FEF2F7"/>
</g>
<path d="M178.214 378.954C172.881 372.383 183.477 294.567 189.442 256.48C200.777 252.228 212.871 238.469 217.502 232.121C217.582 233.188 219.076 237.195 224.412 244.682C229.749 252.169 233.087 259.678 234.089 262.497C234.918 289.407 220.934 337.296 213.838 357.877C235.795 359.781 260.627 383.602 270.5 395.555L265.526 412.507C262.391 410.383 250.941 404.047 230.223 395.701C204.325 385.267 184.88 387.169 178.214 378.954Z" fill="url(#paint1_linear_30_2251)"/>
<mask id="mask1_30_2251" style="mask-type:alpha" maskUnits="userSpaceOnUse" x="176" y="232" width="95" height="181">
<path d="M178.214 378.954C172.881 372.383 183.477 294.567 189.442 256.48C200.777 252.228 212.871 238.469 217.502 232.121C217.582 233.188 219.076 237.195 224.412 244.682C229.749 252.169 233.087 259.678 234.089 262.497C234.918 289.407 220.934 337.296 213.838 357.877C235.795 359.781 260.627 383.602 270.5 395.555L265.526 412.507C262.391 410.383 250.941 404.047 230.223 395.701C204.325 385.267 184.88 387.169 178.214 378.954Z" fill="#F89AB8"/>
</mask>
<g mask="url(#mask1_30_2251)">
<path d="M172.738 383.551C167.405 376.98 178.001 299.164 183.966 261.077C195.301 256.825 205.743 241.241 210.373 234.893C210.453 235.96 213.6 241.792 218.937 249.279C224.273 256.766 217.977 258.131 218.979 260.95C219.785 287.093 217.109 334.308 210.354 355.953C209.846 356.807 209.705 357.715 209.583 358.365C209.516 358.719 209.595 359.099 209.85 359.353C210.292 359.794 211.008 360.435 211.515 360.526C234.183 364.105 270.12 397.704 279.659 409.252L260.051 417.104C256.915 414.98 245.465 408.644 224.747 400.297C198.85 389.864 179.405 391.765 172.738 383.551Z" fill="#FBC6D7"/>
<mask id="mask2_30_2251" style="mask-type:alpha" maskUnits="userSpaceOnUse" x="171" y="234" width="109" height="184">
<path d="M172.738 383.551C167.405 376.98 178.001 299.164 183.966 261.077C195.301 256.825 205.743 241.241 210.373 234.893C210.453 235.96 213.6 241.792 218.937 249.279C224.273 256.766 217.977 258.131 218.979 260.95C219.785 287.093 217.109 334.308 210.354 355.953C209.846 356.807 209.705 357.715 209.583 358.365C209.516 358.719 209.595 359.099 209.85 359.353C210.292 359.794 211.008 360.435 211.515 360.526C234.183 364.105 270.12 397.704 279.659 409.252L260.051 417.104C256.915 414.98 245.465 408.644 224.747 400.297C198.85 389.864 179.405 391.765 172.738 383.551Z" fill="#FBC6D7"/>
</mask>
<g mask="url(#mask2_30_2251)">
<path d="M204.53 341.557C209.209 306.526 200.448 274.748 204.783 271.071C223.662 323.485 280.066 408.015 276.214 405.832L267.975 405.862C263.114 390.547 215.906 372.41 207.176 363.288C203.824 359.784 203.709 346.518 204.53 341.557Z" fill="#FEB3CB"/>
</g>
<path d="M190.888 288.971C193.607 281.455 196.737 261.183 195.558 251.423C176.387 265.91 171.726 369.137 171.757 377.605C171.781 384.378 224.987 415.477 251.586 430.179L275.551 412.471C264.995 404.347 224.159 389.086 219.386 385.442C213.419 380.886 188.011 379.377 185.022 375.497C182.033 371.617 184.943 353.528 184.9 341.628C184.857 329.728 187.489 298.366 190.888 288.971Z" fill="#FEF2F7"/>
</g>
<path d="M191.323 267.521L164.777 240.288C131.594 270.496 125.873 296.584 119.465 308.484C113.058 320.384 114.888 317.181 109.625 334.573C104.361 351.965 83.7652 397.277 84.2229 404.6C84.5891 410.458 93.5293 410.702 97.9537 410.092C136.949 352.24 140.824 332.59 137.544 329.767C164.09 312.924 184.229 281.099 191.323 267.521Z" fill="#FF7CA6"/>
<mask id="mask3_30_2251" style="mask-type:alpha" maskUnits="userSpaceOnUse" x="84" y="240" width="108" height="171">
<path d="M191.323 267.521L164.777 240.288C131.594 270.496 125.873 296.584 119.465 308.484C113.058 320.384 114.888 317.181 109.625 334.573C104.361 351.965 83.7652 397.277 84.2229 404.6C84.5891 410.458 93.5293 410.702 97.9537 410.092C136.949 352.24 140.824 332.59 137.544 329.767C164.09 312.924 184.229 281.099 191.323 267.521Z" fill="#FF7CA6"/>
</mask>
<g mask="url(#mask3_30_2251)">
<path d="M186.746 267.521L160.2 240.288C127.017 270.496 121.296 296.584 114.888 308.484C108.481 320.384 110.311 317.181 105.048 334.573C99.7845 351.965 79.1883 397.277 79.646 404.6C80.0122 410.458 88.9524 410.702 93.3768 410.092C127.512 359.45 132.6 341.744 133.417 332.056C133.534 330.676 134.562 329.309 134.333 327.936C135.498 327.197 137.316 326.662 138.452 325.877C163.21 308.76 179.963 280.503 186.746 267.521Z" fill="#FEB3CB"/>
<path d="M177.356 254.248L157.454 237.084C124.271 267.292 118.55 293.381 112.142 305.281C105.734 317.181 107.565 313.977 102.302 331.369C97.0383 348.761 76.4422 394.073 76.8998 401.396C77.266 407.254 87.1141 408.643 91.5385 408.033C105.727 386.063 126.879 341.057 127.696 331.369C127.813 329.99 128.84 328.623 128.612 327.25C129.777 326.511 134.569 323.459 135.706 322.673C160.464 305.557 170.573 267.23 177.356 254.248Z" fill="#FBC6D7"/>
<path d="M142.114 274.386C144.127 271.823 159.887 252.417 167.515 243.035C166.524 241.356 163.762 238.275 160.65 239.373C156.76 240.746 143.487 248.985 123.348 267.979C103.21 286.973 76.8924 401.167 75.5193 404.142C74.4208 406.522 81.1642 407.27 84.6731 407.346C91.1571 390.64 104.674 355.947 106.871 350.821C109.617 344.413 117.856 319.24 119 316.265C120.144 313.29 139.596 277.59 142.114 274.386Z" fill="#FEF2F7"/>
</g>
<path d="M197.723 305.738C177.035 278.643 155.692 262.41 147.606 257.681C148.704 254.202 158.59 244.789 163.396 240.517C181.887 271.64 207.563 251.044 218.09 236.856C243.355 250.953 236.398 283.922 229.762 298.644C222.362 301.695 207.563 307.386 207.563 305.738V290.635C204.451 295.028 199.706 302.535 197.723 305.738Z" fill="url(#paint2_linear_30_2251)"/>
<mask id="mask4_30_2251" style="mask-type:alpha" maskUnits="userSpaceOnUse" x="147" y="236" width="89" height="71">
<path d="M197.723 305.738C177.035 278.643 155.692 262.41 147.606 257.681C148.704 254.202 158.59 244.789 163.396 240.517C181.887 271.64 207.563 251.044 218.09 236.856C243.355 250.953 236.398 283.922 229.762 298.644C222.362 301.695 207.563 307.386 207.563 305.738V290.635C204.451 295.028 199.706 302.535 197.723 305.738Z" fill="url(#paint3_linear_30_2251)"/>
</mask>
<g mask="url(#mask4_30_2251)">
<path d="M146.462 251.273C154.349 257.077 159.347 259.481 172.55 273.013C187.425 285.371 197.14 296.699 200.469 300.017C205.983 305.512 204.222 303.868 204.588 305.281C218.777 301.619 230.173 297.363 237.313 292.236" stroke="white" stroke-opacity="0.5"/>
<path d="M212.369 241.67C217.709 241.212 236.169 260.664 221.065 305.289" stroke="white" stroke-opacity="0.49"/>
<path d="M205.504 265.233C204.588 269.581 198.944 271.869 195.892 272.785V269.352C198.638 270.633 202.529 268.437 205.504 265.233Z" fill="url(#paint4_linear_30_2251)"/>
<path d="M173.694 260.885C179.797 263.783 194.428 267.841 204.131 260.885C202.071 266.682 193.1 274.798 173.694 260.885Z" fill="url(#paint5_linear_30_2251)"/>
<path d="M216.488 236.259C219.909 238.164 225.722 248.015 227.931 263.86C228.855 270.489 231.753 276.664 229.99 284.227C228.545 290.429 224.982 300 220.837 306.286L247.154 295.53C245.476 277.222 240.38 239.737 233.423 236.259C226.466 232.781 219.235 234.81 216.488 236.259Z" fill="#0017DF" fill-opacity="0.5"/>
<path d="M152.183 256.765C155.158 259.969 169.575 273.242 169.346 275.302L145.546 257.452L147.835 249.671L163.167 238.229C167.744 240.441 176.257 245.552 173.694 248.298C171.131 251.044 167.439 248.069 165.913 246.238C161.337 248.298 160.421 248.298 158.819 249.671C157.217 254.019 152.183 256.308 152.183 256.765Z" fill="url(#paint6_linear_30_2251)"/>
</g>
<path d="M210.146 193.604C211.611 210.264 217.622 230.753 220.444 238.915C192.296 278.506 166.665 253.79 163.919 244.865C161.722 237.725 161.936 209.699 162.317 196.579C156.138 193.604 143.552 177.814 153.163 170.033C160.853 163.808 175.144 151.954 182.619 145.317H195.435C210.538 156.531 208.315 172.779 210.146 193.604Z" fill="url(#paint7_linear_30_2251)"/>
<mask id="mask5_30_2251" style="mask-type:alpha" maskUnits="userSpaceOnUse" x="149" y="145" width="72" height="116">
<path d="M210.146 193.604C211.611 210.264 217.622 230.753 220.444 238.915C192.296 278.506 166.665 253.79 163.919 244.865C161.722 237.725 161.936 209.699 162.317 196.579C156.138 193.604 143.552 177.814 153.163 170.033C160.853 163.808 175.144 151.954 182.619 145.317H195.435C210.538 156.531 208.315 172.779 210.146 193.604Z" fill="url(#paint8_linear_30_2251)"/>
</mask>
<g mask="url(#mask5_30_2251)">
<path d="M199.096 163.166C199.096 173.908 191.114 179.415 180.961 179.415C170.809 179.415 161.108 170.707 161.108 159.965C161.108 149.223 169.09 143.715 179.243 143.715C189.395 143.715 199.096 152.424 199.096 163.166Z" fill="#6B85FF"/>
<path d="M197.384 162.564C197.384 172.343 189.978 177.356 180.56 177.356C171.141 177.356 161.108 168.743 161.108 158.964C161.108 149.186 168.513 144.173 177.932 144.173C187.35 144.173 197.384 152.786 197.384 162.564Z" fill="#4464FE"/>
<path d="M166.142 211.161C167.422 205.945 159.809 197.837 157.904 195.664L154.242 243.83L159.728 250.816C167.271 248.72 161.643 237.709 166.142 228.16C168.885 222.338 164.542 217.681 166.142 211.161Z" fill="url(#paint9_linear_30_2251)"/>
<path d="M170.7 219.235C172.302 226.939 166.352 237.085 185.347 248.985C173.447 248.985 165.025 243.767 170.7 219.235Z" fill="url(#paint10_linear_30_2251)"/>
<path d="M172.221 222.728C173.382 225.123 172.304 228.941 179.44 231.282C175.591 232.261 172.432 231.242 172.221 222.728Z" fill="url(#paint11_linear_30_2251)"/>
<path d="M201.945 175.691C201.945 168.825 201.807 161.576 197.239 155.615C200.968 156.98 206.293 166.079 201.945 175.691Z" fill="url(#paint12_linear_30_2251)"/>
<path d="M161.565 196.579C167.633 195.644 170.719 197.265 180.639 191.315C178.994 193.137 163.854 207.335 161.565 196.579Z" fill="#4262FE"/>
<path d="M239.373 220.968C235.149 229.426 228.354 220.968 220.55 220.968C206.317 203.04 208.875 181.113 206.317 165.359C198.742 138.237 175.786 149.026 165.227 142.131C171.961 136.691 198.421 131.227 206.317 138.582C216.188 147.776 239.373 211.084 239.373 220.968Z" fill="#2D42FF"/>
<path d="M148.292 178.029L157.446 157.662L162.939 160.575L161.337 164.769C159.905 167.892 156.717 172.833 152.64 175.539C150.581 175.539 152.06 184.099 151.496 184.437C150.525 185.018 149.019 177.708 148.292 178.029Z" fill="url(#paint13_linear_30_2251)"/>
</g>
<path d="M294.509 402.562L289.695 400.062C282.349 457.072 263.124 456.455 255.314 448.473C274.854 472.661 290.012 424.548 290.239 424.089C295.522 416.747 297.732 407.585 297.942 402.55L294.509 402.562Z" fill="#CAF4F3"/>
<path d="M270.213 391.894C270.042 394.423 269.247 398.126 266.243 403.362C264.446 401.24 261.938 398.444 260.622 397.65C258.34 399.26 255.627 408.424 254.944 409.342C256.414 410.801 259.381 412.987 260.681 413.898C255.951 422.154 254.98 440.389 255.085 448.474C274.378 467.628 287.729 426.005 291.993 402.8C289.595 397.682 278.92 394.914 273.883 394.169L270.213 391.894Z" fill="#F6FEFD"/>
<path d="M257.681 440.758C259.512 442.588 263.86 444.419 269.581 440.758" stroke="#14D1A4" stroke-width="3" stroke-linecap="round" stroke-linejoin="round"/>
<path d="M258.596 434.35C260.427 436.181 266.148 437.554 270.496 434.35" stroke="#14D1A4" stroke-width="3" stroke-linecap="round" stroke-linejoin="round"/>
<path d="M260.427 428.4C261.835 429.589 265.004 430.917 269.581 428.4" stroke="#14D1A4" stroke-width="3" stroke-linecap="round" stroke-linejoin="round"/>
<path d="M255.308 446.643C260.664 451.2 273.365 453.351 281.32 425.494" stroke="#CEF4F4" stroke-width="2" stroke-linecap="round" stroke-linejoin="round"/>
<path d="M278.001 412.706C270.948 414.169 267.645 414.61 263.133 414.59C263.138 416.055 263.905 417.181 264.288 417.561C269.602 418.824 275.644 414.85 278.001 412.706Z" stroke="#14D1A4" stroke-linecap="round"/>
<path d="M263.138 415.964C265.892 418.013 271.219 423.074 270.501 426.922C268.666 425.708 264.624 421.817 263.138 415.964Z" stroke="#14D1A4"/>
<path d="M247.825 421.335C254.285 418.31 255.726 417.424 261.76 414.656C262.09 416.24 261.702 416.222 261.633 416.757C257.444 423.597 251.002 421.583 247.825 421.335Z" stroke="#14D1A4" stroke-linecap="round"/>
<path d="M262.033 415.586C260.054 418.391 256.567 424.86 258.447 428.292C259.813 426.567 262.443 421.611 262.033 415.586Z" stroke="#14D1A4"/>
<circle cx="262.677" cy="415.05" r="0.644224" transform="rotate(-0.207545 262.677 415.05)" fill="#14D1A4" stroke="#14D1A4"/>
<path d="M65.4757 454.024C49.1632 457.615 49.8344 446.006 52.2091 439.752C55.8613 458.151 83.4739 446.445 96.8237 438.292C96.867 439.087 96.9212 440.811 96.7922 441.345C96.6309 442.012 85.8664 449.535 65.4757 454.024Z" fill="#C5F4F2"/>
<path d="M95.0389 430.091C97.4339 424.078 98.5126 414.056 98.4039 409.635C96.4524 409.916 87.2544 407.099 83.248 405.817C82.0652 410.711 77.0842 419.631 74.8282 422.146C61.6388 427.622 54.2533 436.165 52.2092 439.752C50.0622 463.248 94.9737 443.025 96.555 439.404C97.82 436.508 96.0713 431.989 95.0389 430.091Z" fill="#F1FEFC"/>
<path d="M60.4154 431.146C61.7122 431.375 64.9466 432.748 67.5096 436.409" stroke="#14D1A4" stroke-width="3" stroke-linecap="round" stroke-linejoin="round"/>
<path d="M66.3653 426.569C67.6621 426.798 70.8965 428.171 73.4595 431.833" stroke="#14D1A4" stroke-width="3" stroke-linecap="round" stroke-linejoin="round"/>
<path d="M73.2307 422.45C74.5275 422.679 76.16 422.908 78.723 426.569" stroke="#14D1A4" stroke-width="3" stroke-linecap="round" stroke-linejoin="round"/>
<path d="M85.1296 398.032L83.2479 405.817C86.7565 411.562 93.8064 412.136 97.169 411.536C97.5072 409.357 99.1217 405.73 99.8867 404.188C96.6969 399.462 88.7195 398.114 85.1296 398.032Z" fill="#F7FFFD"/>
<path d="M54.0961 439.737C54.7393 443.895 59.4794 450.973 73.2947 446.025" stroke="#AAFEE7" stroke-width="3"/>
<path d="M89.9744 435.46C82.1184 438.74 77.5063 445.16 75.1966 447.898C77.3261 447.659 82.7992 445.34 85.2696 444.211L89.9744 435.46Z" fill="#AAFEE7" stroke="#DAFFF5"/>
<path d="M83.6362 407.274C86.7852 407.938 93.3998 409.942 94.6666 412.639C96.25 416.012 85.3287 412.598 83.6362 407.274Z" fill="white" stroke="#14D1A4"/>
<path d="M83.5319 407.559C84.9382 410.787 87.5291 417.824 86.6431 420.141C84.6224 418.474 81.1712 413.622 83.5319 407.559Z" fill="white" stroke="#14D1A4"/>
<path d="M82.8867 407.04C79.9198 405.793 73.3415 403.673 70.764 405.169C67.542 407.039 78.4633 410.452 82.8867 407.04Z" stroke="#14D1A4"/>
<path d="M82.8102 407.333C79.8156 409.186 73.6784 413.495 73.0872 415.904C75.6979 415.684 81.2975 413.662 82.8102 407.333Z" stroke="#14D1A4"/>
<path d="M83.7869 407.88C83.6427 408.281 83.4175 408.586 83.1952 408.761C82.9664 408.941 82.8076 408.942 82.731 408.914C82.6544 408.887 82.5322 408.786 82.4703 408.501C82.4102 408.224 82.43 407.846 82.5742 407.444C82.7184 407.043 82.9436 406.738 83.1659 406.563C83.3947 406.382 83.5535 406.382 83.6301 406.409C83.7067 406.437 83.8289 406.538 83.8908 406.823C83.9509 407.1 83.9311 407.478 83.7869 407.88Z" fill="#14D1A4" stroke="#14D1A4"/>
<path d="M183.404 121.381C194.002 134.026 187.82 146.895 183.404 149.365C170.86 166.949 162.046 149.782 159.072 140.644C157.45 132.494 160.046 127.851 165.02 123.11C169.995 118.368 178.267 116.935 183.404 121.381Z" fill="#FF7CA6"/>
<mask id="mask6_30_2251" style="mask-type:alpha" maskUnits="userSpaceOnUse" x="158" y="118" width="32" height="39">
<path d="M183.861 121.235C194.459 133.937 188.276 146.864 183.861 149.345C171.316 167.007 162.25 149.69 159.276 140.511C157.654 132.325 160.502 127.735 165.477 122.972C170.451 118.209 178.724 116.77 183.861 121.235Z" fill="#FF7CA6"/>
</mask>
<g mask="url(#mask6_30_2251)">
<path d="M181.474 122.662C192.916 134.333 187.888 145.231 183.496 147.696C171.022 165.25 160.412 147.523 157.455 138.401C155.842 130.265 156.831 137.387 164.055 134.746C178.957 129.298 180.787 121.289 181.474 122.662Z" fill="#FEB3CB"/>
<path d="M181.474 124.263C193.603 140.74 185.661 147.196 181.245 149.665C168.701 167.249 158.817 145.53 155.843 136.392C158.589 136.85 160.875 140.846 168.201 137.079C176.21 132.96 176.21 134.104 181.474 124.263Z" fill="#FBC6D7"/>
<path d="M180.612 131.337C180.02 129.378 180.223 125.466 181.692 126.275C182.545 126.275 183.559 130.623 183.559 130.623C185.131 134.867 186.147 142.628 184.45 143.944C181.871 140.934 180.505 139.187 174.282 138.91C171.572 135.248 181.692 134.911 180.612 131.337Z" fill="#FEF2F7" fill-opacity="0.3"/>
</g>
<path d="M166.142 99.4767C165.41 100.392 162.481 101.384 161.108 101.765C165.227 107.257 174.884 118.883 180.56 121.446C186.235 124.009 187.806 133.193 187.883 137.465C188.249 138.197 188.493 143.263 188.569 145.704C190.949 145.521 191.647 141.813 191.698 139.982C192.178 142.815 191.842 146.711 191.544 148.679C194.84 148.862 199.308 144.483 201.131 142.271C201.566 147.215 200.944 149.908 200.469 150.738C202.3 149.823 206.877 146.848 210.538 142.271C215.115 136.55 209.394 130.829 207.335 129.913C205.275 128.998 204.817 109.775 204.131 104.969C203.582 101.124 198.105 96.1966 195.435 94.2132C173.694 84.144 167.058 98.3325 166.142 99.4767Z" fill="url(#paint14_linear_30_2251)"/>
<path d="M190.863 129.08C189.582 127.799 186.363 130.759 185.142 132.742C184.386 133.886 183.998 137.548 188.575 135.488C193.152 133.428 192.465 130.682 190.863 129.08Z" fill="#FBC6D7" stroke="url(#paint15_linear_30_2251)"/>
<path fill-rule="evenodd" clip-rule="evenodd" d="M188.371 131.075C187.598 131.752 186.891 132.748 186.479 133.46C186.415 133.57 186.275 133.607 186.166 133.544C186.057 133.48 186.019 133.34 186.083 133.231C186.509 132.494 187.245 131.453 188.069 130.731C188.481 130.37 188.931 130.075 189.388 129.948C189.856 129.818 190.335 129.864 190.766 130.188C190.867 130.263 190.888 130.407 190.812 130.508C190.736 130.609 190.593 130.63 190.492 130.554C190.191 130.328 189.864 130.29 189.511 130.389C189.147 130.49 188.758 130.736 188.371 131.075ZM189.797 130.88C189.895 130.8 190.039 130.814 190.119 130.912C190.302 131.135 190.482 131.411 190.596 131.7C190.709 131.984 190.77 132.311 190.668 132.612C190.561 132.929 190.294 133.161 189.872 133.287C189.458 133.41 188.876 133.437 188.085 133.344C187.959 133.329 187.869 133.216 187.884 133.09C187.899 132.965 188.013 132.875 188.138 132.889C188.903 132.979 189.414 132.946 189.742 132.848C190.062 132.753 190.187 132.605 190.235 132.465C190.287 132.311 190.265 132.107 190.171 131.869C190.078 131.635 189.926 131.399 189.765 131.202C189.685 131.104 189.7 130.96 189.797 130.88Z" fill="#FC719A"/>
<path d="M166.371 130.671C152.457 139.459 142.8 127.696 139.596 120.373C147.377 112.592 146.01 113.804 152.64 110.075C156.302 108.015 158.133 108.702 159.506 100.692C162.435 101.241 176.898 103.209 181.933 113.508L183.535 113.736C202.758 117.032 205.199 108.168 203.902 103.438C212.873 118.451 192.765 120.144 181.933 119C181.017 121.059 180.285 121.883 166.371 130.671Z" fill="url(#paint16_linear_30_2251)"/>
<mask id="mask7_30_2251" style="mask-type:alpha" maskUnits="userSpaceOnUse" x="139" y="100" width="68" height="34">
<path d="M166.371 130.671C152.457 139.459 142.8 127.696 139.596 120.373C147.377 112.592 146.01 113.804 152.64 110.075C156.302 108.015 158.133 108.702 159.506 100.692C162.435 101.241 176.898 103.209 181.933 113.508L183.535 113.736C202.758 117.032 205.199 108.168 203.902 103.438C212.873 118.451 192.765 120.144 181.933 119C181.017 121.059 180.285 121.883 166.371 130.671Z" fill="url(#paint17_linear_30_2251)"/>
</mask>
<g mask="url(#mask7_30_2251)">
<path d="M152.183 138.909L175.525 127.696C171.177 123.577 162.252 127.687 156.302 121.966C150.352 116.245 156.76 112.126 150.81 110.295L132.273 119.229L152.183 138.909Z" fill="url(#paint18_linear_30_2251)" fill-opacity="0.3"/>
<path d="M148.23 114.541C141.366 117.303 142.128 118.816 139.825 121.538L138.223 119.25L145.775 110.782L158.133 97.717C162.938 100.463 158.244 107.522 156.988 108.473C154.797 110.133 153.479 110.15 151.757 111.962C150.743 113.028 149.596 113.992 148.23 114.541Z" fill="#C1DBF7"/>
</g>
<path d="M159.277 109.159C159.506 112.058 165.456 117.012 179.644 119.071" stroke="#BAD4F6" stroke-linecap="round" stroke-linejoin="round"/>
<path d="M169.976 108.594C166.355 107.723 164.906 106.934 163.111 104.883C162.459 106.675 163.805 110.313 164.684 110.375C164.869 110.388 168.272 108.5 169.976 108.594Z" fill="#B8D2F6"/>
<path d="M165.456 165.913C156.974 156.901 136.083 136.433 126.614 128.298C125.991 127.762 125.606 127 125.808 126.203C127.207 120.683 136.813 104.41 148.521 92.9115C150.581 87.8769 152.183 88.1057 154.471 81.6981C156.302 76.5719 161.336 75.9006 164.083 76.8923C164.998 77.2229 164.325 78.6288 162.71 78.9519C160.421 79.4096 158.819 81.6981 158.819 83.0711C158.819 84.0147 157.904 89.9365 164.54 87.1904C166.371 84.9019 167.515 88.7923 160.192 94.0558C154.471 96.5731 138.223 120.803 140.054 121.975C144.873 123.406 151.793 134.545 167.286 138.91C183.535 143.487 198.638 153.098 193.146 165.913C187.654 178.729 176.44 177.585 165.456 165.913Z" fill="#FF7CA6"/>
<mask id="mask8_30_2251" style="mask-type:alpha" maskUnits="userSpaceOnUse" x="125" y="76" width="70" height="100">
<path d="M165.456 165.913C156.974 156.901 136.083 136.433 126.614 128.298C125.991 127.762 125.606 127 125.808 126.203C127.207 120.683 136.813 104.41 148.521 92.9115C150.581 87.8769 152.183 88.1057 154.471 81.6981C156.302 76.5719 161.336 75.9006 164.083 76.8923C164.998 77.2229 164.325 78.6288 162.71 78.9519C160.421 79.4096 158.819 81.6981 158.819 83.0711C158.819 84.0147 157.904 89.9365 164.54 87.1904C166.371 84.9019 167.515 88.7923 160.192 94.0558C154.471 96.5731 138.223 120.803 140.054 121.975C144.873 123.406 151.793 134.545 167.286 138.91C183.535 143.487 198.638 153.098 193.146 165.913C187.654 178.729 176.44 177.585 165.456 165.913Z" fill="#FF7CA6"/>
</mask>
<g mask="url(#mask8_30_2251)">
<path d="M162.484 167.675C154.002 158.663 133.112 138.194 123.643 130.059C123.019 129.523 122.635 128.761 122.837 127.964C124.236 122.445 133.842 106.172 145.55 94.673C147.609 89.6384 149.211 89.8673 151.5 83.4596C153.331 78.3334 161.336 74.9853 164.083 75.977C164.998 76.3075 165.241 78.8577 163.625 79.1808C161.336 79.6385 159.963 81.4108 159.506 83.0127C159.246 83.9199 157.446 89.2608 164.083 86.5147C165.913 84.2262 166.829 89.4789 157.675 94.673C151.954 97.1903 135.252 122.565 137.082 123.737C141.901 125.167 148.822 136.307 164.315 140.671C180.563 145.248 195.667 154.86 190.175 167.675C184.682 180.49 173.469 179.346 162.484 167.675Z" fill="#FEB3CB"/>
<mask id="mask9_30_2251" style="mask-type:alpha" maskUnits="userSpaceOnUse" x="122" y="75" width="70" height="102">
<path d="M162.484 167.675C154.002 158.663 133.112 138.194 123.643 130.059C123.019 129.523 122.635 128.761 122.837 127.964C124.236 122.445 133.842 106.172 145.55 94.673C147.609 89.6384 149.211 89.8673 151.5 83.4596C153.331 78.3334 161.336 74.9853 164.083 75.977C164.998 76.3075 165.241 78.8577 163.625 79.1808C161.336 79.6385 159.963 81.4108 159.506 83.0127C159.246 83.9199 157.446 89.2608 164.083 86.5147C165.913 84.2262 166.829 89.4789 157.675 94.673C151.954 97.1903 135.252 122.565 137.082 123.737C141.901 125.167 148.822 136.307 164.315 140.671C180.563 145.248 195.667 154.86 190.175 167.675C184.682 180.49 173.469 179.346 162.484 167.675Z" fill="#FEB3CB"/>
</mask>
<g mask="url(#mask9_30_2251)">
<path d="M160.196 167.849C151.714 158.837 130.823 138.369 121.355 130.233C120.731 129.697 120.346 128.935 120.548 128.138C121.947 122.619 131.554 106.346 143.261 94.8471C145.321 89.8125 146.923 90.0413 149.211 83.6336C151.042 78.5075 164.311 74.5277 167.058 75.5193C167.973 75.8499 168.888 81.0665 164.54 80.3251C162.24 79.9328 162.484 82.0317 162.027 83.6336C161.768 84.5409 159.048 87.877 165.685 85.1309C167.515 82.8424 167.744 87.2598 158.59 92.454C152.869 94.9713 132.963 122.739 134.794 123.911C139.613 125.341 146.533 136.481 162.027 140.845C178.275 145.422 193.379 155.034 187.886 167.849C182.394 180.664 171.181 179.52 160.196 167.849Z" fill="#FBC6D7"/>
<path d="M162.938 77.5789C168.202 81.6981 168.029 74.375 164.54 73.6885C160.65 75.2141 149.289 80.2335 148.008 80.7827C146.406 81.4692 123.348 128.612 121.517 129.985C120.053 131.083 131.663 138.223 135.935 144.631L183.535 180.56C184.679 175.754 181.567 173.648 177.356 171.635C172.092 169.117 168.66 167.744 166.371 163.625C164.083 159.506 153.556 149.208 148.75 144.631C143.944 140.054 128.383 129.069 128.383 125.637C128.383 123.25 135.706 111.677 143.944 99.3192C154.471 89.9366 157.659 73.4472 162.938 77.5789Z" fill="#FEF2F7"/>
</g>
</g>
<path d="M251.96 209.394C259.004 226.009 255.42 226.246 235.254 234.796C215.088 243.346 193.325 257.001 186.281 240.386C179.236 223.772 167.48 184.501 187.646 175.95C207.812 167.4 244.915 192.779 251.96 209.394Z" fill="url(#paint19_linear_30_2251)"/>
<ellipse cx="219.957" cy="224.813" rx="41.293" ry="35.7791" transform="rotate(-22.9766 219.957 224.813)" fill="url(#paint20_radial_30_2251)" fill-opacity="0.5"/>
<ellipse cx="219.751" cy="225.343" rx="38.4445" ry="32.5914" transform="rotate(-22.9766 219.751 225.343)" fill="#38FF26" fill-opacity="0.2"/>
<ellipse cx="219.583" cy="224.423" rx="36.3865" ry="29.9788" transform="rotate(-22.9766 219.583 224.423)" fill="url(#paint21_radial_30_2251)"/>
<mask id="mask10_30_2251" style="mask-type:alpha" maskUnits="userSpaceOnUse" x="184" y="193" width="72" height="63">
<ellipse cx="219.583" cy="224.423" rx="36.3865" ry="29.9788" transform="rotate(-22.9766 219.583 224.423)" fill="#68FF92"/>
</mask>
<g mask="url(#mask10_30_2251)">
<path d="M232.141 175.03C238.179 189.273 229.14 207.236 211.139 214.868C193.138 222.5 173.942 216.509 167.903 202.267C161.864 188.024 170.904 170.061 188.905 162.429C206.906 154.797 226.102 160.788 232.141 175.03Z" stroke="url(#paint22_radial_30_2251)" stroke-width="3"/>
<path d="M269.481 258.788C275.61 273.243 268.642 290.077 253.838 296.354C239.033 302.631 222.09 295.936 215.961 281.48C209.832 267.025 216.799 250.192 231.604 243.915C246.409 237.638 263.352 244.333 269.481 258.788Z" stroke="url(#paint23_linear_30_2251)" stroke-width="3"/>
</g>
</g>
<defs>
<linearGradient id="paint0_linear_30_2251" x1="245.094" y1="5.4922" x2="207.105" y2="83.5287" gradientUnits="userSpaceOnUse">
<stop stop-color="#FFFF97" stop-opacity="0.945806"/>
<stop offset="0.456015" stop-color="white"/>
<stop offset="1" stop-color="white" stop-opacity="0.4"/>
</linearGradient>
<linearGradient id="paint1_linear_30_2251" x1="241.929" y1="291.304" x2="223.74" y2="412.659" gradientUnits="userSpaceOnUse">
<stop stop-color="#FF78A3"/>
<stop offset="1" stop-color="#FF8EB2"/>
</linearGradient>
<linearGradient id="paint2_linear_30_2251" x1="191.781" y1="236.856" x2="172.321" y2="306.196" gradientUnits="userSpaceOnUse">
<stop stop-color="#78AEEC"/>
<stop offset="1" stop-color="#142AE9"/>
</linearGradient>
<linearGradient id="paint3_linear_30_2251" x1="191.781" y1="236.856" x2="172.321" y2="306.196" gradientUnits="userSpaceOnUse">
<stop stop-color="#78AEEC"/>
<stop offset="1" stop-color="#142AE9"/>
</linearGradient>
<linearGradient id="paint4_linear_30_2251" x1="207.335" y1="270.496" x2="197.037" y2="269.123" gradientUnits="userSpaceOnUse">
<stop stop-color="#C1C5FF"/>
<stop offset="1" stop-color="#C1C5FF" stop-opacity="0"/>
</linearGradient>
<linearGradient id="paint5_linear_30_2251" x1="197.265" y1="259.511" x2="193.375" y2="270.038" gradientUnits="userSpaceOnUse">
<stop stop-color="#C1C5FF"/>
<stop offset="1" stop-color="#C7CAFF" stop-opacity="0"/>
</linearGradient>
<linearGradient id="paint6_linear_30_2251" x1="162.023" y1="254.477" x2="158.819" y2="240.06" gradientUnits="userSpaceOnUse">
<stop stop-color="#DBF3F8"/>
<stop offset="1" stop-color="#99B5F3"/>
</linearGradient>
<linearGradient id="paint7_linear_30_2251" x1="185.202" y1="142.342" x2="188.177" y2="267.064" gradientUnits="userSpaceOnUse">
<stop stop-color="#94BFFF"/>
<stop offset="1" stop-color="#0D25FE"/>
</linearGradient>
<linearGradient id="paint8_linear_30_2251" x1="185.202" y1="142.342" x2="188.177" y2="267.064" gradientUnits="userSpaceOnUse">
<stop stop-color="#94BFFF"/>
<stop offset="1" stop-color="#0D25FE"/>
</linearGradient>
<linearGradient id="paint9_linear_30_2251" x1="156.528" y1="207.75" x2="166.946" y2="251.895" gradientUnits="userSpaceOnUse">
<stop stop-color="#99B5F3"/>
<stop offset="1" stop-color="#DBF3F8"/>
</linearGradient>
<linearGradient id="paint10_linear_30_2251" x1="180.312" y1="254.477" x2="164.75" y2="231.821" gradientUnits="userSpaceOnUse">
<stop stop-color="#C1C5FF"/>
<stop offset="1" stop-color="#C1C5FF" stop-opacity="0"/>
</linearGradient>
<linearGradient id="paint11_linear_30_2251" x1="181.246" y1="242.577" x2="171.147" y2="227.479" gradientUnits="userSpaceOnUse">
<stop stop-color="#C1C5FF"/>
<stop offset="1" stop-color="#C1C5FF" stop-opacity="0"/>
</linearGradient>
<linearGradient id="paint12_linear_30_2251" x1="202.3" y1="152.64" x2="206.001" y2="172.959" gradientUnits="userSpaceOnUse">
<stop stop-color="#C1C5FF"/>
<stop offset="1" stop-color="#C1C5FF" stop-opacity="0"/>
</linearGradient>
<linearGradient id="paint13_linear_30_2251" x1="163.854" y1="184.894" x2="158.362" y2="155.831" gradientUnits="userSpaceOnUse">
<stop stop-color="#99B5F3"/>
<stop offset="1" stop-color="#DBF3F8"/>
</linearGradient>
<linearGradient id="paint14_linear_30_2251" x1="186.51" y1="113.207" x2="186.688" y2="150.738" gradientUnits="userSpaceOnUse">
<stop stop-color="#050753"/>
<stop offset="1" stop-color="#008294"/>
</linearGradient>
<linearGradient id="paint15_linear_30_2251" x1="190.858" y1="130.828" x2="185.594" y2="133.346" gradientUnits="userSpaceOnUse">
<stop stop-color="#FC719A"/>
<stop offset="1" stop-color="#FC719A" stop-opacity="0"/>
</linearGradient>
<linearGradient id="paint16_linear_30_2251" x1="142.342" y1="131.815" x2="207.335" y2="111.219" gradientUnits="userSpaceOnUse">
<stop stop-color="#2B02CD"/>
<stop offset="0.511301" stop-color="#5899FF"/>
<stop offset="0.857583" stop-color="#5EC0DF"/>
<stop offset="1" stop-color="white"/>
</linearGradient>
<linearGradient id="paint17_linear_30_2251" x1="176.211" y1="117.398" x2="211.454" y2="113.279" gradientUnits="userSpaceOnUse">
<stop stop-color="#02C3CD"/>
<stop offset="1" stop-color="white"/>
</linearGradient>
<linearGradient id="paint18_linear_30_2251" x1="152.869" y1="131.815" x2="154.7" y2="114.652" gradientUnits="userSpaceOnUse">
<stop stop-color="white"/>
<stop offset="1" stop-color="#003BD5" stop-opacity="0"/>
<stop offset="1" stop-color="white"/>
</linearGradient>
<linearGradient id="paint19_linear_30_2251" x1="187.425" y1="187.883" x2="225.787" y2="254.473" gradientUnits="userSpaceOnUse">
<stop stop-color="#F5FF7C" stop-opacity="0"/>
<stop offset="0.544444" stop-color="#00FF47"/>
<stop offset="1" stop-color="#00A72F"/>
</linearGradient>
<radialGradient id="paint20_radial_30_2251" cx="0" cy="0" r="1" gradientUnits="userSpaceOnUse" gradientTransform="translate(220.452 268.657) rotate(-84.1426) scale(52.8156 60.9834)">
<stop stop-color="#FFEC3E"/>
<stop offset="1" stop-color="#1EB910" stop-opacity="0"/>
</radialGradient>
<radialGradient id="paint21_radial_30_2251" cx="0" cy="0" r="1" gradientUnits="userSpaceOnUse" gradientTransform="translate(217.632 198.821) rotate(91.0357) scale(69.8205 84.7441)">
<stop stop-color="#F5FF7C"/>
<stop offset="0.546875" stop-color="#00FF47"/>
<stop offset="1" stop-color="#00A72F"/>
</radialGradient>
<radialGradient id="paint22_radial_30_2251" cx="0" cy="0" r="1" gradientUnits="userSpaceOnUse" gradientTransform="translate(208.25 228.388) rotate(-100.46) scale(45.3791 55.0785)">
<stop stop-color="white"/>
<stop offset="1" stop-color="white" stop-opacity="0"/>
</radialGradient>
<linearGradient id="paint23_linear_30_2251" x1="224.956" y1="230.677" x2="236.627" y2="252.875" gradientUnits="userSpaceOnUse">
<stop stop-color="white"/>
<stop offset="1" stop-color="white" stop-opacity="0"/>
</linearGradient>
<clipPath id="clip0_30_2251">
<rect width="357" height="476" fill="white"/>
</clipPath>
<clipPath id="clip1_30_2251">
<rect width="98.1841" height="128.328" fill="white" transform="translate(183.048 -12.8154) rotate(26.2336)"/>
</clipPath>
</defs>
</svg>
